<?xml version="1.0" encoding="UTF-8"?>
<svg width="496px" height="72px" viewBox="0 0 496 72" version="1.1" xmlns="http://www.w3.org/2000/svg" xmlns:xlink="http://www.w3.org/1999/xlink">
    <title>logo_harvard</title>
    <g id="assets" stroke="none" stroke-width="1" fill="none" fill-rule="evenodd">
        <g id="logo_harvard">
            <line x1="298.68" y1="69.48" x2="298.68" y2="1.15" id="Path" stroke="#231F20" stroke-width="0.75"></line>
            <path d="M167.65,12.08 C167.130844,10.7412291 165.973567,9.75303441 164.57,9.45 L164.57,8.69 C165.57,8.69 168.76,8.8 169.5,8.8 C170.24,8.8 173.1,8.69 174.09,8.69 L174.09,9.44 C173.2,9.61 172.19,10.1 172.19,11 C172.385818,12.1204278 172.771348,13.199237 173.33,14.19 L180.4,30.19 L187.06,14.11 C187.541305,13.1670473 187.859148,12.1492736 188,11.1 C188,10.24 187.21,9.66 186.11,9.44 L186.11,8.69 C186.99,8.69 189.11,8.8 189.82,8.8 C190.53,8.8 192.99,8.69 193.96,8.69 L193.96,9.45 C192.3,9.9 191.28,10.82 190.36,12.99 L180.54,36.15 L178.47,36.15 L167.65,12.08 Z" id="Path" fill="#231F20" fill-rule="nonzero"></path>
            <path d="M72.32,35.26 C73.6,34.97 74.5,34.39 74.5,32.94 L74.5,11.71 C74.5,10.32 73.66,9.71 72.32,9.38 L72.32,8.63 C72.99,8.63 75.89,8.74 76.59,8.74 C77.29,8.74 80.49,8.63 81.16,8.63 L81.16,9.38 C79.88,9.68 78.92,10.25 78.92,11.71 L78.92,20.58 L94.74,20.58 L94.74,11.71 C94.74,10.25 93.9,9.71 92.57,9.38 L92.57,8.63 C93.23,8.63 96.25,8.74 97.07,8.74 C97.89,8.74 100.73,8.63 101.4,8.63 L101.4,9.38 C100.12,9.68 99.16,10.25 99.16,11.71 L99.16,32.94 C99.16,34.33 100.05,34.94 101.4,35.26 L101.4,36 L97.07,35.95 L92.57,36 L92.57,35.3 C93.84,35.01 94.74,34.43 94.74,32.98 L94.74,22.98 L78.92,22.98 L78.92,32.98 C78.92,34.43 79.82,34.98 81.16,35.3 L81.16,36 L76.59,35.95 L72.32,36 L72.32,35.3 L72.32,35.26 Z M105.74,35.26 C107.284692,34.8936052 108.533959,33.7613398 109.05,32.26 L117.79,11.21 C118.11118,10.3397324 118.381634,9.45157554 118.6,8.55 L121.05,8.55 C121.263323,9.45184274 121.530468,10.3400997 121.85,11.21 L131.1,32.3 C131.562016,33.7986558 132.783556,34.9402816 134.31,35.3 L134.31,36 C133.31,36 130.2,35.95 129.49,35.95 C128.78,35.95 125.81,36 124.81,36 L124.81,35.3 C126.15,34.97 126.58,34.3 126.58,33.63 C126.530824,32.9830363 126.357679,32.3515678 126.07,31.77 L124.07,27.3 L113.86,27.3 L112.07,31.8 C111.826123,32.3515817 111.674116,32.9393423 111.62,33.54 C111.62,34.3 112.02,34.91 113.55,35.31 L113.55,36 C112.64,36 110.26,35.95 109.69,35.95 L105.69,36 L105.69,35.3 L105.74,35.26 Z M123.15,25 L118.8,14.91 L114.8,25.04 L123.15,25 Z M105.74,35.26 C107.284692,34.8936052 108.533959,33.7613398 109.05,32.26 L117.79,11.21 C118.11118,10.3397324 118.381634,9.45157554 118.6,8.55 L121.05,8.55 C121.263323,9.45184274 121.530468,10.3400997 121.85,11.21 L131.1,32.3 C131.562016,33.7986558 132.783556,34.9402816 134.31,35.3 L134.31,36 C133.31,36 130.2,35.95 129.49,35.95 C128.78,35.95 125.81,36 124.81,36 L124.81,35.3 C126.15,34.97 126.58,34.3 126.58,33.63 C126.530824,32.9830363 126.357679,32.3515678 126.07,31.77 L124.07,27.3 L113.86,27.3 L112.07,31.8 C111.826123,32.3515817 111.674116,32.9393423 111.62,33.54 C111.62,34.3 112.02,34.91 113.55,35.31 L113.55,36 C112.64,36 110.26,35.95 109.69,35.95 L105.69,36 L105.69,35.3 L105.74,35.26 Z M123.15,25 L118.8,14.91 L114.8,25.04 L123.15,25 Z M192.43,35.22 C193.973623,34.8557647 195.220734,33.7220279 195.73,32.22 L204.48,11.17 C204.799532,10.3000997 205.066677,9.41184274 205.28,8.51 L207.73,8.51 C207.948366,9.41157554 208.21882,10.2997324 208.54,11.17 L217.78,32.28 C218.24556,33.7764354 219.465532,34.9165961 220.99,35.28 L220.99,36 C219.99,36 216.88,35.95 216.17,35.95 C215.46,35.95 212.49,36 211.49,36 L211.49,35.3 C212.83,34.97 213.25,34.3 213.25,33.63 C213.200824,32.9830363 213.027679,32.3515678 212.74,31.77 L210.74,27.3 L200.54,27.3 L198.75,31.8 C198.51363,32.3535521 198.365174,32.940628 198.31,33.54 C198.31,34.3 198.7,34.91 200.23,35.31 L200.23,36 C199.32,36 197.01,35.95 196.45,35.95 L192.45,36 L192.45,35.3 L192.43,35.22 Z M209.84,25 L205.49,14.87 L201.44,25 L209.84,25 Z M255.64,35.22 C257.28,34.93 258.18,34.28 258.18,32.78 L258.18,11.71 C258.18,10.25 257.29,9.71 255.71,9.38 L255.71,8.63 C256.62,8.63 259.63,8.74 260.44,8.74 C261.78,8.74 265.56,8.45 268.44,8.45 C278.17,8.45 284.07,13.88 284.07,22.15 C284.07,30.15 277.93,36.15 267.89,36.15 C265,36.15 261.49,35.92 260.15,35.92 C259.34,35.92 256.53,36.03 255.62,36.03 L255.62,35.27 L255.64,35.22 Z M262.64,33.83 C264.054705,34.0273266 265.481606,34.1242355 266.91,34.120133 C275.08,34.120133 279.34,29.2 279.34,22.34 C279.34,15.22 274.85,10.21 267.21,10.21 C265.681511,10.2025422 264.154397,10.3027904 262.64,10.51 L262.64,33.87 L262.64,33.83 Z" id="Shape" fill="#231F20" fill-rule="nonzero"></path>
            <path d="M145.26,32.74 C145.26,34.15 146.15,34.91 147.79,35.26 L147.79,36 C146.88,36 143.9,35.88 143.05,35.88 C142.2,35.88 139.4,36 138.49,36 L138.49,35.24 C140.01,34.95 140.91,34.24 140.91,32.72 L140.91,11.72 C140.91,10.43 140.21,9.61 138.49,9.32 L138.49,8.63 C139.41,8.63 142.29,8.74 143.11,8.74 C144.44,8.74 148.24,8.52 149.73,8.52 C156.27,8.52 159.92,11.23 159.92,15.85 C159.92,19.5 157.2,21.96 153.03,22.98 C153.740211,23.4347183 154.37744,23.9944011 154.92,24.64 C156.08,26 159.27,30.56 160.56,32.12 C161.85,33.68 163.5,35.47 165.26,35.55 L165.26,36.12 C164.197238,36.3411804 163.115472,36.4583997 162.03,36.47 C159.762803,36.5098438 157.620743,35.4332063 156.3,33.59 C154.81,31.79 152.22,27.93 150.72,26.03 C149.722211,24.6558137 148.203664,23.7519167 146.52,23.53 C146.11,23.46 145.72,23.4 145.26,23.35 L145.26,32.74 L145.26,32.74 Z M145.26,21.61 C146.392473,21.73192 147.531016,21.7886802 148.67,21.78 C153.8,21.78 155.4,18.84 155.4,16.24 C155.4,12.54 152.94,10.24 148.4,10.24 C147.330173,10.2510861 146.263136,10.3514343 145.21,10.54 L145.21,21.61 L145.26,21.61 Z" id="Shape" fill="#231F20" fill-rule="nonzero"></path>
            <path d="M231.51,32.74 C231.51,34.15 232.41,34.91 234.05,35.26 L234.05,36 C233.13,36 230.16,35.88 229.31,35.88 C228.46,35.88 225.65,36 224.74,36 L224.74,35.24 C226.27,34.95 227.16,34.24 227.16,32.72 L227.16,11.72 C227.16,10.43 226.46,9.61 224.75,9.32 L224.75,8.63 C225.66,8.63 228.54,8.74 229.36,8.74 C230.7,8.74 234.49,8.52 235.99,8.52 C242.53,8.52 246.17,11.23 246.17,15.85 C246.17,19.5 243.45,21.96 239.29,22.98 C240.000211,23.4347183 240.63744,23.9944011 241.18,24.64 C242.34,26 245.53,30.56 246.81,32.12 C248.09,33.68 249.75,35.47 251.52,35.55 L251.52,36.12 C250.457062,36.3400656 249.375405,36.4572731 248.29,36.47 C246.022803,36.5098438 243.880743,35.4332063 242.56,33.59 C241.07,31.79 238.47,27.93 236.98,26.03 C235.980595,24.6575856 234.462877,23.7541822 232.78,23.53 C232.36,23.46 231.98,23.4 231.51,23.35 L231.51,32.74 L231.51,32.74 Z M231.51,21.61 C232.645844,21.7316037 233.787696,21.7883625 234.93,21.78 C240.05,21.78 241.66,18.84 241.66,16.24 C241.66,12.54 239.2,10.24 234.71,10.24 C233.63686,10.2510871 232.566502,10.3514332 231.51,10.54 L231.51,21.61 L231.51,21.61 Z" id="Shape" fill="#231F20" fill-rule="nonzero"></path>
            <path d="M72.32,62.82 C72.72,62.82 73.77,62.82 74.1,62.82 L76.02,62.82 L76.02,62.27 C75.1,62.07 74.82,61.57 74.86,61.2 L75.62,52.67 L80.54,62.77 L81.54,62.77 L85.7,53 L86.31,61.24 C86.2818048,61.7711266 85.8930697,62.213623 85.37,62.31 L85.37,62.86 L87.43,62.86 L89.55,62.86 L89.55,62.31 C89.0311378,62.1927852 88.649679,61.7504554 88.61,61.22 L87.87,50.72 C87.7551038,50.1133977 88.1114791,49.5165763 88.7,49.33 L88.7,48.78 C88.15,48.78 87.7,48.78 87.3,48.78 C86.9,48.78 86.53,48.78 86.03,48.78 L81.46,59.4 L76.28,48.74 C75.8,48.74 75.28,48.74 74.97,48.74 C74.66,48.74 74.12,48.74 73.57,48.74 L73.57,49.29 C74.1697767,49.4517382 74.5414488,50.0507861 74.42,50.66 L73.48,61.15 C73.3395338,61.7145623 72.889142,62.1494234 72.32,62.27 L72.32,62.82 L72.32,62.82 Z M94.49,62.82 C94.99,62.82 96.32,62.82 96.7,62.82 L100.85,62.82 C102.001546,62.7966697 103.153476,62.8400758 104.3,62.95 L104.65,60.46 L104.08,60.33 C103.631842,61.2228536 102.671926,61.7388083 101.68,61.62 L97.88,61.62 L97.88,56 L101.26,56 C101.786076,56.013161 102.257347,56.3286396 102.47,56.81 L103,56.81 C103,56.37 103,55.65 103,55.41 C103,55.17 103,54.47 103.05,54.03 L102.48,54.03 C102.282163,54.5235822 101.801729,54.8451952 101.27,54.84 L97.88,54.84 L97.88,49.94 L101.72,49.94 C102.624298,49.8637017 103.458522,50.4309739 103.72,51.3 L104.26,51.3 L104.33,48.56 L103.78,48.56 C103.528205,48.6836984 103.250487,48.7454134 102.97,48.74 L94.47,48.74 L94.47,49.29 C95.21,49.46 95.52,49.94 95.52,50.36 L95.52,61.11 C95.5091229,61.7047537 95.060734,62.2001167 94.47,62.27 L94.47,62.82 L94.49,62.82 Z M109.13,62.82 C109.64,62.82 110.97,62.82 111.34,62.82 C111.98,62.82 113.88,62.95 115.25,62.95 C119.63,62.95 122.64,60.09 122.64,56.07 C122.711008,54.0909312 121.954562,52.1717007 120.552352,50.7732859 C119.150143,49.3748712 117.228869,48.6236293 115.25,48.7 C113.88,48.7 111.98,48.83 111.34,48.83 L109.13,48.83 L109.13,49.38 C109.697601,49.4414792 110.139775,49.900498 110.18,50.47 L110.18,61.11 C110.173517,61.7064839 109.722892,62.204317 109.13,62.27 L109.13,62.82 L109.13,62.82 Z M112.52,49.82 C113.182303,49.7250256 113.850975,49.681562 114.52,49.69 C117.8,49.69 120.12,52.6 120.12,55.94 C120.211844,57.4896704 119.643319,59.0057849 118.555183,60.1129771 C117.467048,61.2201693 115.961031,61.8149279 114.41,61.75 C113.774189,61.7582804 113.138758,61.7148036 112.51,61.62 L112.51,49.81 L112.52,49.82 Z M127.3,62.82 L129.66,62.82 L131.93,62.82 L131.93,62.27 C131.1,62.05 130.77,61.72 130.77,61.18 L130.77,50.38 C130.77,49.83 131.1,49.5 131.93,49.29 L131.93,48.74 L129.66,48.74 L127.3,48.74 L127.3,49.29 C128.13,49.46 128.44,49.83 128.44,50.38 L128.44,61.18 C128.44,61.72 128.13,62.09 127.3,62.27 L127.3,62.82 L127.3,62.82 Z M148.57,59.82 C147.72,61.48 145.99,61.82 144.2,61.82 C140.92,61.82 139.2,58.52 139.2,55.75 C139.2,52.36 141.03,49.67 144.2,49.67 C145.9,49.67 147.56,50.15 148.35,51.67 L148.9,51.67 L148.76,49.16 C148.378892,49.1526375 147.99983,49.1023195 147.63,49.01 C146.50908,48.7070673 145.359438,48.5227224 144.2,48.46 C139.56,48.46 136.65,51.65 136.65,55.72 C136.65,59.79 139.28,63 144.2,63 C145.432719,62.9465257 146.656261,62.7621564 147.85,62.45 C148.220288,62.358596 148.598892,62.3049883 148.98,62.29 L149.11,59.78 L148.57,59.82 Z M152,62.82 C152.57,62.82 153.66,62.82 153.94,62.82 C154.22,62.82 155.21,62.82 155.69,62.82 L155.69,62.27 C155.06,62.05 154.84,61.74 154.88,61.46 C154.948331,61.2085165 155.031817,60.9613983 155.13,60.72 L155.91,58.82 L161.05,58.82 L161.79,60.72 C161.889565,60.9598869 161.96982,61.2073396 162.03,61.46 C162.08,61.74 162.03,62.05 161.38,62.27 L161.38,62.82 C161.92,62.82 163.28,62.82 163.61,62.82 C163.94,62.82 165.22,62.82 165.77,62.82 L165.77,62.27 C165.052798,62.1072612 164.492739,61.5472016 164.33,60.83 L160.26,50.29 C160.09,49.83 159.78,48.61 159.78,48.61 L158.3,48.61 C158.16858,49.1788188 158.004984,49.7397207 157.81,50.29 L153.44,60.83 C153.14,61.57 152.87,62.05 152,62.27 L152,62.82 L152,62.82 Z M156.44,57.57 L158.58,52.43 L160.58,57.57 L156.44,57.57 Z M169.75,62.82 C170.25,62.82 171.58,62.82 171.96,62.82 L176.11,62.82 C177.261546,62.7966697 178.413476,62.8400758 179.56,62.95 L179.91,60.02 L179.37,59.89 C179.044836,60.9501314 178.048167,61.6596943 176.94,61.62 L173.14,61.62 L173.14,50.38 C173.14,49.83 173.47,49.5 174.3,49.29 L174.3,48.74 L171.98,48.74 L169.66,48.74 L169.66,49.29 C170.49,49.46 170.8,49.83 170.8,50.38 L170.8,61.11 C170.789123,61.7047537 170.340734,62.2001167 169.75,62.27 L169.75,62.82 L169.75,62.82 Z M189.92,62.36 C191.218046,62.7598322 192.56275,62.9884319 193.92,63.04 C196.78,63.04 198.86,61.5 198.86,58.84 C198.914365,57.6126899 198.282465,56.4567761 197.22,55.84 C195.95,55.07 194.22,54.5 192.98,53.78 C192.182713,53.3909546 191.691861,52.566323 191.73,51.68 C191.73,50.44 192.85,49.5 194.46,49.5 C195.898095,49.4249828 197.235363,50.2384543 197.83,51.55 L198.38,51.55 L198.29,48.71 C196.98,48.71 195.73,48.47 194.64,48.47 C191.91,48.47 189.48,49.67 189.48,52.47 C189.415302,54.0050477 190.3188,55.416264 191.74,56 C193.15553,56.5832374 194.534689,57.2511106 195.87,58 C196.423927,58.4164005 196.722827,59.0898714 196.66,59.78 C196.66,61.31 195.48,61.9 193.84,61.9 C193.022376,61.9067067 192.2167,61.7035661 191.5,61.31 C190.986787,60.9105508 190.603903,60.3675525 190.4,59.75 L189.84,59.75 L189.92,62.38 L189.92,62.36 Z M215.17,59.82 C214.32,61.48 212.59,61.82 210.8,61.82 C207.52,61.82 205.8,58.52 205.8,55.75 C205.8,52.36 207.64,49.67 210.8,49.67 C212.51,49.67 214.17,50.15 214.95,51.67 L215.5,51.67 L215.37,49.16 C214.985586,49.1527944 214.603194,49.1024797 214.23,49.01 C213.109252,48.7062675 211.959525,48.5219089 210.8,48.46 C206.17,48.46 203.26,51.65 203.26,55.72 C203.26,59.79 205.88,63 210.8,63 C212.032858,62.9479726 213.256554,62.7635802 214.45,62.45 C214.823627,62.3583326 215.205574,62.3047259 215.59,62.29 L215.72,59.78 L215.17,59.82 Z M219.65,62.82 L221.71,62.82 L223.87,62.82 L223.87,62.27 C223.347544,62.1588143 222.963187,61.7131241 222.93,61.18 L222.93,56 L230.47,56 L230.47,61.18 C230.453972,61.7095779 230.078206,62.1596713 229.56,62.27 L229.56,62.82 L231.7,62.82 L233.75,62.82 L233.75,62.27 C233.234598,62.1470607 232.85585,61.7078744 232.81,61.18 L232.81,50.38 C232.846475,49.8482216 233.229358,49.4042399 233.75,49.29 L233.75,48.74 L231.7,48.74 L229.56,48.74 L229.56,49.29 C230.080201,49.3970055 230.457598,49.8490521 230.47,50.38 L230.47,54.75 L222.93,54.75 L222.93,50.38 C222.966475,49.8482216 223.349358,49.4042399 223.87,49.29 L223.87,48.74 L221.71,48.74 L219.65,48.74 L219.65,49.29 C220.170642,49.4042399 220.553525,49.8482216 220.59,50.38 L220.59,61.18 C220.550321,61.7104554 220.168862,62.1527852 219.65,62.27 L219.65,62.82 L219.65,62.82 Z M245.12,63.04 C249.129587,63.04 252.38,59.7895873 252.38,55.78 C252.38,51.7704127 249.129587,48.52 245.12,48.52 C243.184421,48.4767133 241.317353,49.2370081 239.962634,50.6201481 C238.607914,52.0032881 237.886542,53.8857365 237.97,55.82 C237.920317,57.7338176 238.656651,59.5844721 240.007544,60.9410326 C241.358436,62.297593 243.205991,63.041669 245.12,63 L245.12,63.04 Z M245.12,61.85 C241.86,61.85 240.48,58.97 240.48,55.85 C240.48,52.73 241.86,49.73 245.12,49.73 C248.38,49.73 249.73,52.73 249.73,55.85 C249.73,58.97 248.38,61.85 245.12,61.85 Z M262.93,63 C265.879629,63.0446535 268.563017,61.3000599 269.71913,58.5860764 C270.875242,55.8720929 270.274191,52.7283819 268.198435,50.6323042 C266.12268,48.5362266 262.984974,47.9045772 260.259856,49.0341943 C257.534738,50.1638115 255.764085,52.8300764 255.78,55.78 C255.719144,57.7006545 256.450535,59.5618688 257.802689,60.927261 C259.154843,62.2926532 261.008844,63.0421414 262.93,63 Z M262.93,61.81 C259.68,61.81 258.3,58.93 258.3,55.81 C258.3,52.69 259.68,49.69 262.93,49.69 C266.18,49.69 267.55,52.69 267.55,55.81 C267.55,58.93 266.19,61.81 262.93,61.81 Z M273.93,62.81 C274.43,62.81 275.76,62.81 276.14,62.81 L280.29,62.81 C281.441546,62.7866697 282.593476,62.8300758 283.74,62.94 L284.09,60.01 L283.55,59.88 C283.224836,60.9401314 282.228167,61.6496943 281.12,61.61 L277.32,61.61 L277.32,50.38 C277.32,49.83 277.64,49.5 278.47,49.29 L278.47,48.74 L276.16,48.74 L273.84,48.74 L273.84,49.29 C274.67,49.46 274.98,49.83 274.98,50.38 L274.98,61.11 C274.969123,61.7047537 274.520734,62.2001167 273.93,62.27 L273.93,62.82 L273.93,62.81 Z" id="Shape" fill="#C41230" fill-rule="nonzero"></path>
            <path d="M29.48,0.25 L0.06,0.25 L0,23.79 C0,52.63 28.92,71 29.22,71.19 L29.31,71.25 C29.4041344,71.2235672 29.4923731,71.1794478 29.57,71.12 C34.48,67.91 59,50.52 59,23.94 L59,0.31 C59,0.25 29.48,0.25 29.48,0.25 Z M58.84,21.1 L0.59,21.1 L0.59,17.71 L58.84,17.71 L58.84,21.1 Z" id="Shape" fill="#C41230" fill-rule="nonzero"></path>
            <path d="M12.64,23.83 C12.64,23.83 12.56,24.19 12.56,24.19 C12.5557161,24.2933291 12.5072014,24.3898254 12.4268204,24.4548957 C12.3464393,24.5199661 12.2419564,24.5473251 12.14,24.53 L11.31,24.39 C11.0208524,24.2746296 10.7033908,24.2502095 10.4,24.32 C10.2273579,24.441025 10.0696004,24.5819998 9.93,24.74 L10.07,24.8 C10.4207917,24.88895 10.6961527,25.1604866 10.79,25.51 C10.8325363,25.8475239 10.97536,26.1645228 11.2,26.42 L11.35,26.63 C11.4070012,26.7017975 11.4417612,26.7886975 11.45,26.88 C11.4484434,26.9561311 11.4159473,27.0283447 11.36,27.08 L10.97,27.53 L10.75,27.77 C10.75,27.77 10.57,28.23 10.46,28.49 C10.55,28.65 10.65,28.8 10.75,28.82 C11.0580485,28.7386138 11.3819515,28.7386138 11.69,28.82 L12.24,28.88 L12.34,28.88 L12.56,28.88 C12.8503769,28.8042408 13.1592585,28.8551154 13.41,29.02 L13.68,29.59 C13.7330816,29.7447987 13.763398,29.9064864 13.77,30.07 C13.7645087,30.2683753 13.7410798,30.465847 13.7,30.66 L13.7,30.98 C13.6881811,31.0516873 13.6608809,31.1199375 13.62,31.18 C13.1065797,31.939637 12.398594,32.5474687 11.57,32.94 L11.63,32.94 C11.6200943,32.9691823 11.6200943,33.0008177 11.63,33.03 C11.8428757,33.087319 12.0671243,33.087319 12.28,33.03 L12.51,33.03 C12.8752439,32.9957847 13.2328946,32.904685 13.57,32.76 L14.69,32.45 C14.8734891,32.4091525 15.0584444,32.5123834 15.12,32.69 C15.2606899,33.0327807 15.5010696,33.3254168 15.81,33.53 C15.81,33.53 15.81,33.53 16.02,33.34 C16.3062112,33.0284373 16.7491249,32.9147692 17.15,33.05 C17.1901658,33.0673165 17.2273019,33.0909485 17.26,33.12 C17.5642132,33.3753457 17.7694185,33.7291479 17.84,34.12 C17.8806973,34.335692 17.973374,34.5382076 18.11,34.71 C18.1786212,34.7721666 18.2214394,34.857803 18.23,34.95 C18.2349165,34.9898489 18.2349165,35.0301511 18.23,35.07 C18.2153296,35.3643559 18.0203346,35.6190433 17.74,35.71 L17.67,35.71 C17.6355279,35.7337843 17.5986602,35.7538939 17.56,35.77 L16.63,35.92 C16.357607,35.9291461 16.0894685,35.990241 15.84,36.1 C15.84,36.1 15.89,36.18 15.96,36.21 C16.4543837,36.4301936 16.9812376,36.5686616 17.52,36.62 L17.83,36.67 L18.55,36.67 L19.72,36.67 C19.8825036,36.6948981 20.0018963,36.835611 20,37 C20.0552661,37.1408081 20.0324817,37.3002987 19.94,37.42 L19.75,37.73 L19.62,37.86 L17.74,39.12 C17.66,39.12 16.63,39.53 16.63,39.53 L15.17,40.11 L15.07,40.11 C14.374609,40.2534786 13.6552791,40.0175079 13.18,39.49 C12.9326554,39.219251 12.5946954,39.0484923 12.23,39.01 C11.9242467,38.9991008 11.6275522,39.1148839 11.41,39.33 C11.3214724,39.439804 11.2785129,39.5794222 11.29,39.72 C11.29,39.77 11.29,39.82 11.29,39.87 L11.38,39.87 C11.7198298,39.9441525 11.9640831,40.2422243 11.97,40.59 C11.911196,41.184806 11.7198404,41.7588728 11.41,42.27 C11.1587442,42.6676041 10.9951097,43.1141897 10.93,43.58 C10.925147,43.6098037 10.925147,43.6401963 10.93,43.67 C10.93,43.77 10.93,43.85 11.01,43.87 L11.01,43.87 C11.0545007,43.8901076 11.1054993,43.8901076 11.15,43.87 L11.27,43.69 C11.398255,43.3868096 11.6675159,43.1661652 11.99,43.1 L12.12,43.1 C12.88,43.19 13.29,43.1 13.56,42.82 C13.6271364,42.7489691 13.7143567,42.7001258 13.81,42.68 C14.0451727,42.6520563 14.2812147,42.7246846 14.46,42.88 C14.6462392,43.0292985 14.7591869,43.2515505 14.77,43.49 L14.77,43.69 C15.22,43.61 15.54,43.19 15.92,42.56 L16.07,42.31 C16.1370818,42.2082573 16.2410599,42.1365482 16.36,42.11 L16.66,42.02 C17.072893,41.8162241 17.557107,41.8162241 17.97,42.02 C18.0632664,42.0847028 18.1305844,42.1803652 18.16,42.29 C18.169884,42.399778 18.169884,42.510222 18.16,42.62 C18.1359967,42.9729346 18.0298402,43.3153749 17.85,43.62 C17.85,43.62 17.78,43.81 17.71,43.97 C18.4496036,43.6948553 19.0737337,43.1765099 19.48,42.5 L19.8,42.09 C19.9279725,41.6956803 20.2859769,41.4212103 20.7,41.4 C20.7426866,41.3894122 20.7873134,41.3894122 20.83,41.4 C21.08,41.47 21.19,41.4 21.54,40.9 L22.1,40.27 C22.19,40.18 22.23,40.19 22.35,40.19 L22.59,40.19 C22.7,40.19 22.8,40.19 22.88,40.25 C22.958426,40.3087365 23.0032263,40.4020704 23,40.5 L23,41.07 L23.57,40.86 L24.37,40.37 C24.4775049,40.3137645 24.6010493,40.2961153 24.72,40.32 L27.65,41.08 C28.0872829,41.2120515 28.3795036,41.6236301 28.36,42.08 C28.3662481,42.196583 28.3662481,42.313417 28.36,42.43 C28.3522468,42.519833 28.3522468,42.610167 28.36,42.7 C28.3562465,42.7607732 28.3739415,42.8209362 28.41,42.87 C28.4911441,42.948982 28.5378582,43.0567837 28.54,43.17 C28.5548464,43.2256942 28.5548464,43.2843058 28.54,43.34 C28.42,43.62 28.12,43.95 27.34,43.95 L25.86,44.03 C24.7186953,43.8872321 23.5661226,44.1879032 22.64,44.87 L21.85,45.67 C21.7708664,45.7435057 21.6679351,45.7860979 21.56,45.79 C21.0198369,45.8459515 20.5066328,46.0540072 20.08,46.39 C19.6325389,46.7203135 19.1219831,46.9551692 18.58,47.08 C18.1747576,47.2702572 17.725279,47.3463228 17.28,47.3 C17.0452331,47.2635248 16.8051352,47.2841046 16.58,47.36 C17.0666379,47.8041087 17.6705712,48.0991336 18.32,48.21 L18.68,48.27 C19.082907,48.2374659 19.4697578,48.4347599 19.68,48.78 C19.6890009,48.8295949 19.6890009,48.8804051 19.68,48.93 C19.68,49.32 19.79,49.48 19.95,49.54 L20.01,49.54 C20.2863004,49.3138791 20.6836996,49.3138791 20.96,49.54 C21.02,49.61 21.65,50.22 21.65,50.22 L22.42,51.02 C22.55,51.15 22.53,51.29 22.42,51.46 C22.1252514,51.942829 21.5410958,52.1649727 21,52 L20.67,52 C20.67,52 20.23,52 20.23,52 C19.5077838,52.2619399 18.6993598,52.0870405 18.15,51.55 L18.22,51.62 L17.64,51.14 C17.2678566,50.7033747 16.7482803,50.4186754 16.18,50.34 C15.58,50.51 15.31,50.7 15.25,51.01 L15.25,51.01 L15.39,51.17 L15.65,51.45 C15.7084285,51.516249 15.7404605,51.6016676 15.74,51.69 L15.74,51.76 C15.7128696,51.8788882 15.6365362,51.9806661 15.53,52.04 C14.997817,52.3363524 14.6296983,52.8590809 14.53,53.46 C14.5204832,53.5363713 14.5204832,53.6136287 14.53,53.69 C14.53,53.69 14.53,53.74 14.53,53.78 L14.72,53.72 C15.0138054,53.5635552 15.3661946,53.5635552 15.66,53.72 C15.8238687,53.7250264 15.9636447,53.840136 16,54 L16,54.45 C16,54.95 16.08,55.18 16.24,55.3 L16.48,55.2 C16.9077011,54.8944495 17.4822989,54.8944495 17.91,55.2 C18.01,55.2 18.17,55.2 18.51,54.98 L19.06,54.72 C19.1021243,54.7055237 19.1478757,54.7055237 19.19,54.72 C20.19,54.72 20.64,55.62 20.92,56.21 L20.92,56.21 L20.92,56.21 C21.38,56.56 21.77,56.81 22.1,56.72 C22.1069893,56.673595 22.1069893,56.626405 22.1,56.58 C22.1076263,56.463458 22.1076263,56.346542 22.1,56.23 C22.0664265,56.0755959 22.0496622,55.9180117 22.05,55.76 C22.0224238,55.3197962 22.2865095,54.9135104 22.7,54.76 C22.77,54.76 23.7,54.67 23.7,54.67 L24.3,54.67 L24.43,54.67 C25.33,54.76 26.04,54.77 26.35,54.14 C26.35,54.14 26.99,53.05 27.1,52.87 L27.23,52.14 C27.2585145,51.9816071 27.3750333,51.8534364 27.53,51.81 C27.8372767,51.7480268 28.1563405,51.786595 28.44,51.92 L28.67,51.99 C28.5101173,51.495179 28.4225465,50.9798585 28.41,50.46 C28.4070436,50.1924685 28.4237553,49.9250815 28.46,49.66 C28.6100485,49.0077292 28.9310406,48.4071633 29.39,47.92 C29.5093781,47.7966697 29.6929441,47.7607547 29.85,47.83 L30.05,47.9 C30.1775827,47.9528229 30.2710498,48.0649834 30.3,48.2 L30.49,49.2 C30.5810444,49.7938462 30.7526243,50.3725079 31,50.92 C31.05,51.01 31.07,51.04 31,51.14 L30.65,52.57 L30.35,53.7 C30.070325,54.7560234 29.3382783,55.6344794 28.35,56.1 C28.35,56.1 28.3,56.19 28.35,56.23 C28.4761182,56.2466696 28.6038818,56.2466696 28.73,56.23 L29.13,56.23 C30.2284805,56.0956164 31.2445637,55.5787239 32,54.77 C32.1070825,54.6486313 32.2755453,54.6016184 32.43,54.65 C32.64,54.71 32.81,54.65 33.1,54.46 C33.5240001,54.1328945 34.1020399,54.0896398 34.57,54.35 C34.8780218,54.5090674 35.2330891,54.5516755 35.57,54.47 C36.15,54.47 37.12,54.34 37.38,55.47 C37.3850087,55.5298955 37.3850087,55.5901045 37.38,55.65 L37.38,56.17 C37.44,56.7 37.57,57.7 36.51,57.98 C36.42,57.98 36.41,57.98 36.33,57.98 L35.24,57.57 C34.39,57.16 34,57.04 33.57,57.57 C33.47,57.68 33.34,57.83 33.4,57.94 C33.46,58.05 33.92,58.84 33.4,59.31 C33.4381139,59.280798 33.4689236,59.2431418 33.49,59.2 L33.43,59.3 C33.16,59.76 32.97,60.12 33.1,60.43 C33.1,60.43 33.1,60.53 33.53,60.43 C33.9590338,60.3133117 34.4163336,60.3633289 34.81,60.57 L35.34,60.73 C35.4189111,60.7539138 35.4958156,60.7840068 35.57,60.82 L35.74,60.95 C36.0348136,61.2255457 36.3969343,61.4186768 36.79,61.51 C36.7876249,61.4833862 36.7876249,61.4566138 36.79,61.43 L37.03,60.96 C37.08,60.96 37.75,60.58 37.75,60.58 C38.19,60.42 38.23,60.37 38.23,60.2 C38.400196,59.4554296 38.8755969,58.816723 39.54,58.44 C39.6204277,58.3989613 39.7097221,58.3783549 39.8,58.38 C40.1320799,58.321701 40.4486309,58.1957613 40.73,58.01 L40.73,58.01 L40.56,57.82 C40.4922098,57.7506428 40.4379489,57.6692514 40.4,57.58 C40.3901724,57.4802415 40.3901724,57.3797585 40.4,57.28 C40.4156083,56.8205598 40.56506,56.3756804 40.83,56 C41.0092429,55.7816206 41.1266528,55.5191749 41.17,55.24 C41.1614478,55.100657 41.108931,54.9676146 41.02,54.86 C40.9846428,54.8255556 40.9632723,54.7792528 40.96,54.73 L40.83,54.03 C40.850954,53.6313769 40.7019648,53.2425514 40.42,52.96 L39.66,52.56 L38.83,52.17 C38.6962214,52.1029546 38.6198643,51.9582779 38.64,51.81 C38.64,51.43 38.87,51.21 39.34,51.16 L39.45,51.16 C39.9017139,51.0564752 40.3753601,51.11303 40.79,51.32 C41.15,51.45 41.28,51.46 41.37,51.4 C41.2492608,51.0518861 41.034703,50.7438919 40.75,50.51 C40.2357623,50.1938399 39.6653255,49.979926 39.07,49.88 C38.064748,49.7682116 37.1409883,49.2741076 36.49,48.5 C36.4359627,48.4318846 36.4076394,48.3469147 36.41,48.26 C36.4089689,48.1451384 36.451901,48.0342306 36.53,47.95 L36.65,47.84 C36.7515348,47.7369383 36.8980906,47.6918443 37.04,47.72 C38.1384923,47.9877291 39.2989006,47.7207981 40.17,47 C40.6392884,46.2664234 41.3188664,45.6913959 42.12,45.35 C42.7459481,44.7026092 43.0343477,43.8004362 42.9,42.91 C42.9428828,42.3729107 43.1770755,41.8690417 43.56,41.49 C43.56,41.49 44.4,41.08 44.4,41.08 C44.5555118,41.054712 44.702848,40.9930364 44.83,40.9 C44.3426318,40.6144937 43.7845627,40.4723767 43.22,40.49 C43.1385986,40.5153766 43.0514014,40.5153766 42.97,40.49 C42.7831363,40.4004293 42.6522695,40.224694 42.62,40.02 C42.6157057,39.9935062 42.6157057,39.9664938 42.62,39.94 C42.648333,39.69184 42.7742665,39.4651597 42.97,39.31 L43.03,39.24 L43.14,39.14 L44.07,38.61 C45.27,37.9 46,37.42 46,36.43 L46,36.43 L46,36.33 C45.8413355,36.3945372 45.6930698,36.4821487 45.56,36.59 L44.92,37.02 C44.3111593,37.3044951 43.6645232,37.4998331 43,37.6 C42.3809516,37.6897473 41.7821108,37.8859776 41.23,38.18 C41.1628649,38.2181478 41.0872069,38.2387818 41.01,38.24 C40.7774826,38.2474827 40.563751,38.112911 40.47,37.9 C40.4381703,37.82043 40.4212225,37.7356915 40.42,37.65 C40.4221466,37.4564317 40.4971239,37.2707737 40.63,37.13 C40.8489751,36.8640486 41.126096,36.6519314 41.44,36.51 C41.78,36.31 42,36.18 42.11,35.92 L42.23,35.59 C42.334882,34.9861058 42.7007789,34.4592142 43.23,34.15 L43.82,33.85 C43.9054207,33.8092471 43.9859366,33.7589246 44.06,33.7 C44.06,33.7 44.06,33.7 43.97,33.65 C43.0123886,33.5152799 42.0546766,33.8953244 41.45,34.65 L41.32,34.75 L40.93,34.91 C40.263576,35.1135669 39.6470597,35.4541836 39.12,35.91 C39.0857246,35.9469577 39.0450765,35.9774438 39,36 C38.7969593,36.0658299 38.5747906,36.0325046 38.4,35.91 C38.2294052,35.7830466 38.1292058,35.5826479 38.13,35.37 C37.97,33.78 39.23,32.63 40.25,31.7 L40.49,31.48 C40.5500463,31.4407635 40.6136617,31.4072817 40.68,31.38 L41.3,31.06 C41.8057555,30.6127668 42.5158223,30.4784298 43.15,30.71 C43.5981902,31.0482573 44.1679306,31.1825273 44.72,31.08 C45.0515777,30.9134404 45.3264517,30.652484 45.51,30.33 C45.7564917,29.9596338 46.0722912,29.6404387 46.44,29.39 C46.7918307,29.2607053 47.1781693,29.2607053 47.53,29.39 C47.6607284,29.4425343 47.7992873,29.4729496 47.94,29.48 L47.99,29.39 C47.9940912,29.3467632 47.9940912,29.3032368 47.99,29.26 C47.99,28.98 47.79,28.71 47.49,28.32 L47.12,27.82 C47.0716179,27.761 47.0466944,27.6862292 47.05,27.61 C47.0371619,27.5540605 47.0371619,27.4959395 47.05,27.44 C47.1660787,27.1403708 47.2237819,26.8213061 47.22,26.5 C47.2177287,25.7357538 46.8904866,25.0085493 46.32,24.5 C46.0331486,24.337782 45.7095383,24.2517154 45.38,24.25 L45.51,24.46 L45.88,25.26 C45.8849915,25.3566022 45.8849915,25.4533978 45.88,25.55 C45.88,27.31 44.36,28.07 43.13,28.68 L42.06,29.26 C39.57,30.51 36.29,32.52 36.06,35.8 C36.1135675,37.5415251 36.8287574,39.1971899 38.06,40.43 C38.083397,40.4575909 38.1035303,40.4877909 38.12,40.52 L38.58,41.24 C39.2619574,42.0098541 39.6821094,42.9762038 39.78,44 C39.7757007,44.2602586 39.7387451,44.518948 39.67,44.77 C39.2693433,45.4796861 38.4781429,45.8752864 37.67,45.77 C35.22,45.61 33.89,43.14 32.91,41.34 L32.77,41 L32.57,40.56 C32.2719736,39.9783945 32.0790099,39.3487235 32,38.7 C31.9922247,38.5732149 32.0396209,38.4492555 32.13,38.36 C32.3615699,38.1195683 32.7376165,38.0936341 33,38.3 C33.05,38.3 33.49,39.04 33.49,39.04 C33.5204383,39.1325359 33.5642342,39.2201278 33.62,39.3 C33.6703543,39.1811563 33.7072506,39.0570506 33.73,38.93 C33.6912894,38.4589584 33.5694046,37.9985049 33.37,37.57 L33.32,37.43 C33.1257819,37.1672012 32.8970601,36.9317523 32.64,36.73 C32.2313935,36.4152095 31.8911509,36.0205281 31.64,35.57 C31.6342997,35.5201625 31.6342997,35.4698375 31.64,35.42 L31.64,35.36 C31.647494,34.9587074 31.9511774,34.6250833 32.35,34.58 L32.48,34.58 C32.2871015,33.9308703 32.1894171,33.2571845 32.19,32.58 C32.1903456,32.2457777 32.2103803,31.9118659 32.25,31.58 L32.25,31.58 C32.25,31.58 32.25,31.58 32.25,31.58 L32.25,31.58 L32.8,30.99 C32.98,30.88 32.99,30.86 32.99,30.82 C32.8144571,30.1238812 32.7304156,29.4078474 32.74,28.69 C32.74,28.4 32.74,28.12 32.74,27.84 C32.74,27.78 32.94,27.13 32.94,27.13 C33.0421571,26.9089788 33.1063875,26.6723405 33.13,26.43 C33.1402632,26.3603762 33.1402632,26.2896238 33.13,26.22 C32.8406913,26.024125 32.6652332,25.699341 32.66,25.35 L32.66,25.13 L32.66,25.13 C32.6986701,25.144587 32.7413299,25.144587 32.78,25.13 C31.8587713,25.0846681 30.9597035,24.8316984 30.15,24.39 L29.25,23.99 C28.995679,23.9613432 28.7390202,24.0175972 28.52,24.15 L28.04,24.31 L27.54,24.41 C27.0732175,24.4214341 26.6232667,24.5866504 26.26,24.88 C26.09,25.08 26.09,25.33 26.1,25.77 L26.1,26 C26.1105878,26.0426866 26.1105878,26.0873134 26.1,26.13 C26.0450784,26.3179557 25.9095315,26.4718197 25.73,26.55 C25.4985438,26.6208289 25.2473208,26.5801899 25.05,26.44 L24.99,26.44 C24.2549228,26.0713554 23.8918979,25.2271117 24.13,24.44 C24.1482066,24.3260807 24.0971584,24.212204 24,24.15 C23.714278,23.9322172 23.3370446,23.8756322 23,24 C22.76,24.09 22.64,24.34 22.46,24.74 L22.36,24.97 C22.36,24.97 22.36,25.03 22.36,25.06 C22.3552413,25.3148748 22.4172991,25.5665536 22.54,25.79 C22.9471748,26.1497406 23.4013261,26.4525081 23.89,26.69 L25.13,27.49 C25.2058626,27.5305576 25.2578586,27.6048375 25.27,27.69 C25.3142334,27.8150988 25.334586,27.9473905 25.33,28.08 C25.3071504,28.484824 25.1526427,28.8710932 24.89,29.18 L24.89,29.18 C25.1314014,29.3160904 25.2889587,29.5636805 25.31,29.84 C25.3142735,29.8932477 25.3142735,29.9467523 25.31,30 C25.2798786,30.1610495 25.1588545,30.2898816 25,30.33 C24.3011548,30.4998595 23.5630321,30.3374725 23,29.89 L22.62,29.4 C22.51,29.2 22.44,29.12 22.37,29.09 C22.2932342,29.188426 22.2355743,29.3003541 22.2,29.42 L22.02,29.78 C22.02,29.73 22.02,30.09 22.02,30.09 C22.0237318,30.4611378 21.8840158,30.8193838 21.63,31.09 C21.5386383,31.1684473 21.4201577,31.2079408 21.3,31.2 L20.95,31.2 C19.2933113,30.6238895 17.742626,29.7792896 16.36,28.7 C15.705889,28.146901 15.1335234,27.5038315 14.66,26.79 L14.28,26.27 C14.2508246,26.230076 14.2272712,26.1863339 14.21,26.14 L14.07,25.64 C13.8,24.69 13.57,24.05 12.89,23.84 L12.7,23.84 L12.64,23.83 Z M10.54,28.86 C10.5966112,28.8564549 10.6533888,28.8564549 10.71,28.86 C10.6536305,28.8517934 10.5963695,28.8517934 10.54,28.86 Z M24.76,29.37 C24.82,29.28 24.87,29.27 24.87,29.22 L24.87,29.22 L24.76,29.38 L24.76,29.37 Z M32.41,34.63 C32.4186113,34.659382 32.4186113,34.690618 32.41,34.72 C32.41,34.72 32.41,34.62 32.41,34.58 L32.41,34.63 Z M28.72,52.1 C28.7123016,52.1497037 28.7123016,52.2002963 28.72,52.25 C28.72,52.19 28.72,52.14 28.72,52.08 L28.72,52.08 L28.72,52.1 Z" id="Shape" fill="#FFFFFF" fill-rule="nonzero"></path>
            <path d="M0.35,23.78 C0.35,16.91 0.35,9.27 0.35,0.32 L59.05,0.32 C59.05,0.32 59.05,3.82 59.05,23.93 C59.05,53.65 29.46,71.08 29.46,71.08 C29.46,71.08 0.35,52.77 0.35,23.78 Z" id="Path" stroke="#231F20" stroke-width="0.65"></path>
            <path d="M41.33,58 L41.33,58 L41.33,58 L41.33,58 C41.14,57.85 40.9,57.53 40.77,57.42 C40.54,56.42 42.16,55.7 41.35,54.58 C41.16,53.93 41.35,53.08 40.66,52.58 C40.1386623,52.2835363 39.6011568,52.0164528 39.05,51.78 C39.05,51.51 39.39,51.58 39.58,51.51 C40.43,51.28 41.2,52.32 41.81,51.51 C41.89,50.93 41.35,50.43 40.97,50.05 C39.7,49.16 37.78,49.51 36.82,48.17 L36.93,48.05 C38.1528153,48.3595472 39.45,48.0741663 40.43,47.28 C40.8754837,46.5467507 41.5503292,45.9808647 42.35,45.67 C43.1073477,44.9473101 43.4781895,43.9089532 43.35,42.87 C43.3912489,42.4443758 43.5826775,42.0473387 43.89,41.75 C44.35,41.33 45.54,41.48 45.31,40.6 C44.670675,40.1950642 43.9266545,39.9864603 43.17,40 C42.83,39.81 43.25,39.54 43.37,39.39 C44.6,38.58 46.52,38.08 46.44,36.28 C46.32,36.09 46.36,35.78 46.06,35.74 C45.52,35.82 45.21,36.32 44.71,36.55 C43.56,37.2 42.1,37.09 40.99,37.78 C40.75,37.78 40.83,37.47 40.91,37.39 C41.33,36.82 42.18,36.78 42.48,36.05 C42.78,35.32 42.83,34.7 43.48,34.47 C43.87,34.17 44.48,34.17 44.71,33.71 C44.71,33.44 44.37,33.28 44.13,33.21 C43.007595,32.9625383 41.8424663,33.3781009 41.13,34.28 C40.2683431,34.5514037 39.4718027,34.9973301 38.79,35.59 C38.7171775,35.6122055 38.6381384,35.5985423 38.5769963,35.5531788 C38.5158542,35.5078154 38.4798619,35.4361327 38.48,35.36 C38.32,33.82 39.71,32.71 40.7,31.78 C41.43,31.59 42.05,30.71 42.89,31.1 C43.4382041,31.4875708 44.1246022,31.6255767 44.78,31.48 C45.62,31.17 45.78,30.21 46.58,29.75 C47.16,29.56 47.96,30.4 48.31,29.6 C48.5,28.75 47.81,28.25 47.43,27.6 C47.8851958,26.3941479 47.5467601,25.0324419 46.58,24.18 C46.1143227,23.929954 45.5711995,23.8656368 45.06,24 C44.63,24.54 45.44,24.88 45.48,25.42 C45.67,27.61 43.29,28.11 41.87,29.03 C39.18,30.38 35.87,32.45 35.72,35.91 C35.7611851,37.7924075 36.5320807,39.5851882 37.87,40.91 C38.57,42.1 39.68,43.22 39.26,44.72 C38.99,45.33 38.26,45.41 37.68,45.41 C35.38,45.25 34.11,42.68 33.15,40.91 C32.7741398,40.2417859 32.5138135,39.5149006 32.38,38.76 C32.5,38.64 32.61,38.69 32.73,38.76 C33.15,39.15 33.11,40.07 33.84,39.95 C34.42,39.15 34,38.19 33.69,37.38 C33.38,36.57 32.38,36.16 32,35.4 C32,34.82 32.8,35.17 32.84,34.59 C32.5526144,33.6174121 32.4742318,32.5950297 32.61,31.59 C32.77,31.17 33.38,31.21 33.38,30.67 C33.1424039,29.688891 33.0647383,28.6758614 33.15,27.67 C33.26,27.06 33.76,26.41 33.42,25.75 C32.73,25.56 33.3,24.75 32.65,24.52 C31.34,24.52 30.38,23.83 29.27,23.41 C28.69,23.26 28.27,23.6 27.81,23.72 C27.0874025,23.7341913 26.38763,23.9756128 25.81,24.41 C25.5245586,24.8881896 25.441768,25.4605243 25.58,26 C25.47,26.34 25.16,26 25.01,26 C24.4967955,25.7107976 24.2551574,25.1025362 24.43,24.54 C24.4989275,24.2642829 24.3917503,23.9745075 24.16,23.81 C23.7923985,23.5541744 23.326694,23.4839491 22.9,23.62 C22.36,23.81 22.2,24.42 21.97,24.88 C21.9360448,25.2677605 22.0159784,25.6570026 22.2,26 C23.0595973,26.6536276 23.9579006,27.2547227 24.89,27.8 C24.9673917,28.2862989 24.7944359,28.7788467 24.43,29.11 C24.43,29.53 25.01,29.53 24.93,29.91 C24.3448389,30.0768373 23.7151168,29.9501476 23.24,29.57 C22.93,29.3 22.86,28.72 22.36,28.65 C21.86,28.58 21.82,29.26 21.63,29.57 C21.44,29.88 21.63,30.49 21.28,30.76 L20.94,30.76 C19.3601506,30.1923762 17.8814196,29.3753605 16.56,28.34 C15.7943468,27.6503549 15.1219993,26.8637083 14.56,26 C14.26,25 14.1,23.69 12.87,23.39 C12.6,23.39 12.26,23.46 12.22,23.77 L12.14,24.16 C11.53,24.16 10.91,23.73 10.26,23.96 C9.94332856,24.1459395 9.66775102,24.3942995 9.45,24.69 C9.45,25.38 10.26,25.12 10.37,25.69 C10.4669768,26.1339736 10.6850391,26.5424077 11,26.87 C10.85,27.14 10.54,27.29 10.38,27.56 L10,28.56 C10.16,28.87 10.35,29.25 10.73,29.29 C11.27,29.06 11.73,29.45 12.3,29.37 C12.65,29.37 13.23,29.1 13.3,29.68 C13.4155958,30.1056243 13.4155958,30.5543757 13.3,30.98 C12.8273483,31.674025 12.178464,32.2297186 11.42,32.59 C11.2125176,32.7720144 11.1476683,33.0678894 11.26,33.32 C11.53,33.71 12.14,33.56 12.57,33.52 C13.37,33.52 13.99,33.02 14.76,32.94 C14.9512236,33.3509191 15.2567282,33.6980834 15.64,33.94 C16.25,34.09 16.41,33.25 17.02,33.48 C17.52,33.86 17.37,34.59 17.83,35.05 C17.83,35.32 17.6,35.32 17.45,35.44 C16.79,35.67 15.87,35.44 15.37,35.97 C15.3364713,36.2688215 15.509164,36.5525309 15.79,36.66 C16.4266307,36.931373 17.1011579,37.1033774 17.79,37.17 C18.4025071,37.1249779 19.0174929,37.1249779 19.63,37.17 L19.44,37.47 L17.56,38.74 C16.6965906,39.0201149 15.8515987,39.3541038 15.03,39.74 C13.84,40.05 13.34,38.55 12.26,38.63 C11.8386693,38.5863127 11.4182201,38.7204215 11.1,39 C10.8696726,39.2783404 10.7877549,39.6506936 10.88,40 C11.03,40.35 11.53,40.2 11.53,40.58 C11.53,41.66 10.53,42.42 10.53,43.58 C10.4623938,43.8751525 10.6075427,44.1778916 10.88,44.31 C11.1004923,44.4094511 11.3595525,44.3616246 11.53,44.19 C11.76,43.96 11.76,43.62 12.14,43.54 C12.7756959,43.7057686 13.4522644,43.5487748 13.95,43.12 C14.1805658,43.1023762 14.3837844,43.2702525 14.41,43.5 C14.41,43.77 14.41,44.08 14.68,44.19 C15.68,44.19 16.1,43.19 16.52,42.54 C16.94,42.46 17.41,42.15 17.83,42.43 C17.98,43.08 17.44,43.54 17.33,44.15 C17.3996696,44.331723 17.5586927,44.4642423 17.75,44.5 C18.9,44.35 19.56,43.27 20.25,42.43 C20.36,42.19 20.48,41.89 20.82,41.89 C21.71,42.15 21.94,41.08 22.47,40.7 L22.71,40.7 C22.78,40.97 22.59,41.16 22.71,41.43 C23.09,41.85 23.51,41.43 23.9,41.31 L24.7,40.81 C25.7,41.12 26.7,41.35 27.7,41.58 C28.51,41.89 27.7,42.73 28.2,43.23 C28.08,43.5 27.74,43.58 27.39,43.58 C25.7,43.81 23.74,43.35 22.39,44.58 L21.58,45.38 C20.32,45.38 19.66,46.49 18.51,46.69 C17.74,47.23 16.51,46.46 16.05,47.34 C16.5589847,48.0698504 17.3562113,48.5467302 18.24,48.65 C18.59,48.8 19.16,48.65 19.35,48.99 C19.35,49.37 19.47,49.84 19.93,49.99 C20.39,50.14 20.47,49.61 20.78,49.87 C21.2,50.45 21.78,50.72 22.16,51.26 C21.89,51.76 21.24,51.45 20.78,51.45 L20.7,51.45 C20.01,51.53 19.13,51.87 18.59,51.22 C17.86,50.68 17.28,49.84 16.24,49.84 C15.67,49.99 15.05,50.22 14.94,50.84 C14.86,51.22 15.25,51.37 15.4,51.6 C14.71,52.06 13.98,52.79 14.21,53.71 C14.29,53.91 14.36,54.14 14.63,54.14 C14.9,54.14 15.25,53.83 15.63,54.02 C15.71,54.6 15.56,55.48 16.25,55.75 C16.78,55.68 17.17,55.1 17.74,55.52 C18.32,55.79 18.74,55.25 19.28,55.1 C20.09,55.1 20.39,55.87 20.66,56.44 C21.16,56.83 21.85,57.44 22.54,57.06 C23.01,56.41 22.12,55.56 23.01,55.14 C23.54,54.98 24.01,55.14 24.54,55.06 C25.39,55.14 26.42,55.21 26.89,54.29 L27.54,53 L27.7,52.2 C28.2,52.05 28.92,52.85 29.16,52.08 C28.8886122,51.3177705 28.8062555,50.5010664 28.92,49.7 C29.0630182,49.1411848 29.3411751,48.6260796 29.73,48.2 L29.92,48.28 C30.055003,49.2384562 30.2896056,50.1802178 30.62,51.09 C30.54,51.97 30.08,52.74 29.96,53.62 C29.7142442,54.5324392 29.082394,55.2921205 28.23,55.7 C28.0112421,55.8507494 27.9176655,56.1274105 28,56.38 C28.23,56.81 28.81,56.58 29.23,56.65 C30.4244652,56.4980764 31.5263957,55.9276237 32.34,55.04 C33.19,55.27 33.61,54.23 34.34,54.7 C35.07,55.17 36.61,54.23 36.91,55.54 C36.8,56.16 37.37,57.27 36.37,57.54 C35.37,57.38 34.23,56.08 33.23,57.23 C32.968229,57.4273108 32.8700811,57.7749179 32.99,58.08 C33.15,58.35 33.34,58.69 33.07,58.92 C32.8,59.38 32.42,59.92 32.65,60.53 C32.8540458,60.8264922 33.238088,60.9392003 33.57,60.8 C34.15,60.57 34.69,61.07 35.26,61.11 C35.6941334,61.570401 36.2802287,61.8581206 36.91,61.92 C37.18,61.76 37.14,61.42 37.33,61.19 C37.76,60.84 38.64,60.92 38.64,60.19 C38.8106223,59.5975903 39.2100145,59.0974506 39.75,58.8 C40.3614329,58.7516834 40.9291556,58.4642288 41.33,58 Z" id="Path" fill="#231F20" fill-rule="nonzero"></path>
            <path d="M41.33,58 L41.33,58 L41.33,58 L41.33,58 C41.14,57.85 40.9,57.53 40.77,57.42 C40.54,56.42 42.16,55.7 41.35,54.58 C41.16,53.93 41.35,53.08 40.66,52.58 C40.1386623,52.2835363 39.6011568,52.0164528 39.05,51.78 C39.05,51.51 39.39,51.58 39.58,51.51 C40.43,51.28 41.2,52.32 41.81,51.51 C41.89,50.93 41.35,50.43 40.97,50.05 C39.7,49.16 37.78,49.51 36.82,48.17 L36.93,48.05 C38.1528153,48.3595472 39.45,48.0741663 40.43,47.28 C40.8754837,46.5467507 41.5503292,45.9808647 42.35,45.67 C43.1073477,44.9473101 43.4781895,43.9089532 43.35,42.87 C43.3912489,42.4443758 43.5826775,42.0473387 43.89,41.75 C44.35,41.33 45.54,41.48 45.31,40.6 C44.670675,40.1950642 43.9266545,39.9864603 43.17,40 C42.83,39.81 43.25,39.54 43.37,39.39 C44.6,38.58 46.52,38.08 46.44,36.28 C46.32,36.09 46.36,35.78 46.06,35.74 C45.52,35.82 45.21,36.32 44.71,36.55 C43.56,37.2 42.1,37.09 40.99,37.78 C40.75,37.78 40.83,37.47 40.91,37.39 C41.33,36.82 42.18,36.78 42.48,36.05 C42.78,35.32 42.83,34.7 43.48,34.47 C43.87,34.17 44.48,34.17 44.71,33.71 C44.71,33.44 44.37,33.28 44.13,33.21 C43.007595,32.9625383 41.8424663,33.3781009 41.13,34.28 C40.2683431,34.5514037 39.4718027,34.9973301 38.79,35.59 C38.7171775,35.6122055 38.6381384,35.5985423 38.5769963,35.5531788 C38.5158542,35.5078154 38.4798619,35.4361327 38.48,35.36 C38.32,33.82 39.71,32.71 40.7,31.78 C41.43,31.59 42.05,30.71 42.89,31.1 C43.4382041,31.4875708 44.1246022,31.6255767 44.78,31.48 C45.62,31.17 45.78,30.21 46.58,29.75 C47.16,29.56 47.96,30.4 48.31,29.6 C48.5,28.75 47.81,28.25 47.43,27.6 C47.8851958,26.3941479 47.5467601,25.0324419 46.58,24.18 C46.1143227,23.929954 45.5711995,23.8656368 45.06,24 C44.63,24.54 45.44,24.88 45.48,25.42 C45.67,27.61 43.29,28.11 41.87,29.03 C39.18,30.38 35.87,32.45 35.72,35.91 C35.7611851,37.7924075 36.5320807,39.5851882 37.87,40.91 C38.57,42.1 39.68,43.22 39.26,44.72 C38.99,45.33 38.26,45.41 37.68,45.41 C35.38,45.25 34.11,42.68 33.15,40.91 C32.7741398,40.2417859 32.5138135,39.5149006 32.38,38.76 C32.5,38.64 32.61,38.69 32.73,38.76 C33.15,39.15 33.11,40.07 33.84,39.95 C34.42,39.15 34,38.19 33.69,37.38 C33.38,36.57 32.38,36.16 32,35.4 C32,34.82 32.8,35.17 32.84,34.59 C32.5526144,33.6174121 32.4742318,32.5950297 32.61,31.59 C32.77,31.17 33.38,31.21 33.38,30.67 C33.1424039,29.688891 33.0647383,28.6758614 33.15,27.67 C33.26,27.06 33.76,26.41 33.42,25.75 C32.73,25.56 33.3,24.75 32.65,24.52 C31.34,24.52 30.38,23.83 29.27,23.41 C28.69,23.26 28.27,23.6 27.81,23.72 C27.0874025,23.7341913 26.38763,23.9756128 25.81,24.41 C25.5245586,24.8881896 25.441768,25.4605243 25.58,26 C25.47,26.34 25.16,26 25.01,26 C24.4967955,25.7107976 24.2551574,25.1025362 24.43,24.54 C24.4989275,24.2642829 24.3917503,23.9745075 24.16,23.81 C23.7923985,23.5541744 23.326694,23.4839491 22.9,23.62 C22.36,23.81 22.2,24.42 21.97,24.88 C21.9360448,25.2677605 22.0159784,25.6570026 22.2,26 C23.0595973,26.6536276 23.9579006,27.2547227 24.89,27.8 C24.9673917,28.2862989 24.7944359,28.7788467 24.43,29.11 C24.43,29.53 25.01,29.53 24.93,29.91 C24.3448389,30.0768373 23.7151168,29.9501476 23.24,29.57 C22.93,29.3 22.86,28.72 22.36,28.65 C21.86,28.58 21.82,29.26 21.63,29.57 C21.44,29.88 21.63,30.49 21.28,30.76 L20.94,30.76 C19.3601506,30.1923762 17.8814196,29.3753605 16.56,28.34 C15.7943468,27.6503549 15.1219993,26.8637083 14.56,26 C14.26,25 14.1,23.69 12.87,23.39 C12.6,23.39 12.26,23.46 12.22,23.77 L12.14,24.16 C11.53,24.16 10.91,23.73 10.26,23.96 C9.94332856,24.1459395 9.66775102,24.3942995 9.45,24.69 C9.45,25.38 10.26,25.12 10.37,25.69 C10.4669768,26.1339736 10.6850391,26.5424077 11,26.87 C10.85,27.14 10.54,27.29 10.38,27.56 L10,28.56 C10.16,28.87 10.35,29.25 10.73,29.29 C11.27,29.06 11.73,29.45 12.3,29.37 C12.65,29.37 13.23,29.1 13.3,29.68 C13.4155958,30.1056243 13.4155958,30.5543757 13.3,30.98 C12.8273483,31.674025 12.178464,32.2297186 11.42,32.59 C11.2125176,32.7720144 11.1476683,33.0678894 11.26,33.32 C11.53,33.71 12.14,33.56 12.57,33.52 C13.37,33.52 13.99,33.02 14.76,32.94 C14.9512236,33.3509191 15.2567282,33.6980834 15.64,33.94 C16.25,34.09 16.41,33.25 17.02,33.48 C17.52,33.86 17.37,34.59 17.83,35.05 C17.83,35.32 17.6,35.32 17.45,35.44 C16.79,35.67 15.87,35.44 15.37,35.97 C15.3364713,36.2688215 15.509164,36.5525309 15.79,36.66 C16.4266307,36.931373 17.1011579,37.1033774 17.79,37.17 C18.4025071,37.1249779 19.0174929,37.1249779 19.63,37.17 L19.44,37.47 L17.56,38.74 C16.6965906,39.0201149 15.8515987,39.3541038 15.03,39.74 C13.84,40.05 13.34,38.55 12.26,38.63 C11.8386693,38.5863127 11.4182201,38.7204215 11.1,39 C10.8696726,39.2783404 10.7877549,39.6506936 10.88,40 C11.03,40.35 11.53,40.2 11.53,40.58 C11.53,41.66 10.53,42.42 10.53,43.58 C10.4623938,43.8751525 10.6075427,44.1778916 10.88,44.31 C11.1004923,44.4094511 11.3595525,44.3616246 11.53,44.19 C11.76,43.96 11.76,43.62 12.14,43.54 C12.7756959,43.7057686 13.4522644,43.5487748 13.95,43.12 C14.1805658,43.1023762 14.3837844,43.2702525 14.41,43.5 C14.41,43.77 14.41,44.08 14.68,44.19 C15.68,44.19 16.1,43.19 16.52,42.54 C16.94,42.46 17.41,42.15 17.83,42.43 C17.98,43.08 17.44,43.54 17.33,44.15 C17.3996696,44.331723 17.5586927,44.4642423 17.75,44.5 C18.9,44.35 19.56,43.27 20.25,42.43 C20.36,42.19 20.48,41.89 20.82,41.89 C21.71,42.15 21.94,41.08 22.47,40.7 L22.71,40.7 C22.78,40.97 22.59,41.16 22.71,41.43 C23.09,41.85 23.51,41.43 23.9,41.31 L24.7,40.81 C25.7,41.12 26.7,41.35 27.7,41.58 C28.51,41.89 27.7,42.73 28.2,43.23 C28.08,43.5 27.74,43.58 27.39,43.58 C25.7,43.81 23.74,43.35 22.39,44.58 L21.58,45.38 C20.32,45.38 19.66,46.49 18.51,46.69 C17.74,47.23 16.51,46.46 16.05,47.34 C16.5589847,48.0698504 17.3562113,48.5467302 18.24,48.65 C18.59,48.8 19.16,48.65 19.35,48.99 C19.35,49.37 19.47,49.84 19.93,49.99 C20.39,50.14 20.47,49.61 20.78,49.87 C21.2,50.45 21.78,50.72 22.16,51.26 C21.89,51.76 21.24,51.45 20.78,51.45 L20.7,51.45 C20.01,51.53 19.13,51.87 18.59,51.22 C17.86,50.68 17.28,49.84 16.24,49.84 C15.67,49.99 15.05,50.22 14.94,50.84 C14.86,51.22 15.25,51.37 15.4,51.6 C14.71,52.06 13.98,52.79 14.21,53.71 C14.29,53.91 14.36,54.14 14.63,54.14 C14.9,54.14 15.25,53.83 15.63,54.02 C15.71,54.6 15.56,55.48 16.25,55.75 C16.78,55.68 17.17,55.1 17.74,55.52 C18.32,55.79 18.74,55.25 19.28,55.1 C20.09,55.1 20.39,55.87 20.66,56.44 C21.16,56.83 21.85,57.44 22.54,57.06 C23.01,56.41 22.12,55.56 23.01,55.14 C23.54,54.98 24.01,55.14 24.54,55.06 C25.39,55.14 26.42,55.21 26.89,54.29 L27.54,53 L27.7,52.2 C28.2,52.05 28.92,52.85 29.16,52.08 C28.8886122,51.3177705 28.8062555,50.5010664 28.92,49.7 C29.0630182,49.1411848 29.3411751,48.6260796 29.73,48.2 L29.92,48.28 C30.055003,49.2384562 30.2896056,50.1802178 30.62,51.09 C30.54,51.97 30.08,52.74 29.96,53.62 C29.7142442,54.5324392 29.082394,55.2921205 28.23,55.7 C28.0112421,55.8507494 27.9176655,56.1274105 28,56.38 C28.23,56.81 28.81,56.58 29.23,56.65 C30.4244652,56.4980764 31.5263957,55.9276237 32.34,55.04 C33.19,55.27 33.61,54.23 34.34,54.7 C35.07,55.17 36.61,54.23 36.91,55.54 C36.8,56.16 37.37,57.27 36.37,57.54 C35.37,57.38 34.23,56.08 33.23,57.23 C32.968229,57.4273108 32.8700811,57.7749179 32.99,58.08 C33.15,58.35 33.34,58.69 33.07,58.92 C32.8,59.38 32.42,59.92 32.65,60.53 C32.8540458,60.8264922 33.238088,60.9392003 33.57,60.8 C34.15,60.57 34.69,61.07 35.26,61.11 C35.6941334,61.570401 36.2802287,61.8581206 36.91,61.92 C37.18,61.76 37.14,61.42 37.33,61.19 C37.76,60.84 38.64,60.92 38.64,60.19 C38.8106223,59.5975903 39.2100145,59.0974506 39.75,58.8 C40.3614329,58.7516834 40.9291556,58.4642288 41.33,58 Z" id="Path" stroke="#231F20" stroke-width="0.13"></path>
            <path d="M23.74,24.37 C23.6061025,24.8485685 23.7021748,25.3621854 24,25.76 C24.81,26.64 26,26.91 26.54,27.95 L26.23,27.95 C25.3265321,27.2814216 24.3775663,26.676623 23.39,26.14 C22.9775793,25.8936412 22.7499619,25.4266329 22.81,24.95 C22.89,24.61 23,24.22 23.39,24.15 C23.4757434,24.1218642 23.5696981,24.1352474 23.6441752,24.1862054 C23.7186524,24.2371634 23.7651629,24.3198881 23.77,24.41 L23.74,24.37 Z" id="Path" fill="#FFFFFF" fill-rule="nonzero"></path>
            <path d="M32,25.3 C32.15,25.53 32,26.03 32.5,26.06 C32.6210784,26.073324 32.716676,26.1689216 32.73,26.29 C32.6878828,26.6925704 32.6109277,27.0907291 32.5,27.48 C32.38,27.79 31.96,27.91 31.96,28.33 C31.96,28.56 32.31,28.67 32.34,28.91 L32.34,30.44 C31.34,30.75 31.84,31.94 31.76,32.55 C31.7250411,33.0493889 31.7250411,33.5506111 31.76,34.05 C31.53,34.17 31.11,34.13 30.99,34.47 C31.0364929,34.9980767 31.196837,35.5098132 31.46,35.97 C31.8,36.47 32.53,36.59 32.57,37.24 C32.07,37.24 31.57,36.93 31.15,36.78 C30.4466524,36.3237339 29.8772135,35.6887233 29.5,34.94 C29.4834315,34.8019288 29.3580712,34.7034315 29.22,34.72 C29.0819288,34.7365685 28.9834315,34.8619288 29,35 C28.92,35.47 28.89,36.12 28.46,36.43 C27.97,36.12 28,34.89 27.2,35.27 C26.93,36.92 25.82,38.27 24.85,39.61 C24.62,39.69 24.59,40.04 24.28,39.96 C24.9058074,38.6400931 25.0405396,37.1403116 24.66,35.73 C24.55,35.47 24.28,35.54 24.09,35.66 C23.9,35.78 23.74,36.19 23.4,36.08 C23.13,35.66 23.66,35 23.05,34.74 C22.51,34.85 22.2,35.31 21.74,35.54 C20.5435469,36.2020118 19.1973771,36.5463008 17.83,36.54 C17.5959465,36.5441181 17.3660389,36.4779325 17.17,36.35 C17.5595041,36.0727802 17.9873344,35.853812 18.44,35.7 C20.05,34.7 21.13,32.97 22.44,31.7 C22.33,31.13 21.83,30.43 22.37,29.9 C22.79,29.9 22.94,30.36 23.29,30.47 C23.8632284,30.8304229 24.5678609,30.914832 25.21,30.7 C25.7521036,30.59182 26.1587759,30.1404137 26.21,29.59 C26.21,29.36 26.09,29.25 25.94,29.17 C25.79,29.09 25.6,29.17 25.52,29.01 C25.516812,28.7623036 25.6954711,28.5496142 25.94,28.51 C26.6,28.51 27.25,29.94 27.71,28.78 C27.98,27.86 27.13,27.17 26.48,26.6 C26.3056759,26.428323 26.2336382,26.1780866 26.29,25.94 C26.79,25.63 26.17,25.21 26.56,24.87 C27.21,24.37 28.21,24.67 28.9,24.18 C30.09,24.18 30.9,25.1 32.01,25.37 L32,25.3 Z" id="Path" fill="#FFFFFF" fill-rule="nonzero"></path>
            <path d="M13.68,25 C13.7401911,25.1749681 13.7401911,25.3650319 13.68,25.54 C13.52,25.69 13.33,25.54 13.22,25.46 C13.0015928,25.3035348 12.8957871,25.0331426 12.95,24.77 C12.95,23.96 13.68,24.69 13.68,25 L13.68,25 Z" id="Path" fill="#FFFFFF" fill-rule="nonzero"></path>
            <path d="M13.14,26.1 C14.1452435,26.7183338 15.0076212,27.5432168 15.67,28.52 C17.229728,29.9374897 19.0791589,30.9986945 21.09,31.63 C21.17,31.94 20.94,32.21 20.71,32.44 C20.05,33.13 19.52,33.94 18.82,34.55 C18.6864979,34.6103227 18.5335021,34.6103227 18.4,34.55 C17.71,33.9 17.79,32.55 16.6,32.55 C16.21,32.55 15.91,33.01 15.52,32.74 C15.13,32.47 15.64,31.74 15.06,31.59 C14.41,31.86 13.87,32.59 13.06,32.47 C13.56,31.63 14.44,30.7 13.98,29.59 C13.8909048,29.0667053 13.5665026,28.6132796 13.1,28.36 C12.64,28.36 12.37,28.86 11.91,28.63 C11.72,28.21 10.91,28.4 11.22,27.86 C11.53,27.32 12.64,27.32 12.22,26.56 C11.91,26.13 11.22,26.36 11.1,25.79 C11.18,25.44 10.88,24.98 11.1,24.79 C12.03,24.71 12.6,25.64 13.1,26.21 L13.14,26.1 Z" id="Path" fill="#FFFFFF" fill-rule="nonzero"></path>
            <path d="M46.86,26.56 C46.98,27.18 46.4,27.56 46.55,28.14 C46.71,28.44 47.21,28.52 47.17,28.87 C45.71,28.87 45.44,30.87 43.98,30.79 C43.37,30.67 42.91,30.02 42.18,30.33 C40.29,31.21 38.26,32.52 37.76,34.74 C37.4832352,35.5976698 37.6560751,36.5370171 38.22,37.24 C38.377034,37.3201361 38.562966,37.3201361 38.72,37.24 C39.1,36.55 39.41,35.63 40.33,35.44 C40.8789561,35.2606268 41.4083261,35.0260959 41.91,34.74 C41.98,34.74 42.1,34.67 42.14,34.82 C41.91,35.47 41.6,36.28 40.87,36.51 C40.2965883,36.9097757 39.8990974,37.5149646 39.76,38.2 C39.6768782,38.5746101 39.7648415,38.9667799 40,39.27 C40.27,39.51 40.58,39.2 40.8,39.05 C41.8,37.82 43.3,37.66 44.8,37.59 C44.88,37.7 44.68,37.93 44.53,37.97 C43.1869159,38.3834885 42.1072564,39.3894511 41.6,40.7 C41.6324098,40.8805846 41.7469845,41.0358148 41.91,41.12 C42.52,41.04 43.02,40.66 43.67,40.74 C43.83,41.16 43.17,41.16 43.02,41.5 C41.83,42.5 43.02,44.88 41.02,45.23 C40.45,45.38 40.53,46.07 40.14,46.42 C39.4491004,47.2249172 38.3844898,47.6051352 37.34,47.42 C36.57,47.5 35.91,46.42 35.26,47.11 C35.34,47.88 35.95,48.3 36.34,48.96 C37.34,49.88 38.64,49.96 39.87,50.34 C40.0276723,50.3848521 40.1564343,50.4988984 40.22,50.65 C40.22,50.92 39.87,50.84 39.64,50.8 C38.8405181,50.9884684 38.0052893,50.9608575 37.22,50.72 C37.11,50.72 36.99,50.84 36.95,50.95 C37.07,51.8 38.03,52.11 38.6,52.57 C39.18,52.84 39.95,52.76 40.22,53.45 L40.22,54.33 C40.5122875,54.7715707 40.6233027,55.3087407 40.53,55.83 C39.9128429,56.3688524 39.7007288,57.2373195 40,58 C39.77,58.19 39.42,58 39.19,58.15 C38.92,58.73 38.19,58.81 38,59.38 C38.0126631,59.8536615 37.6911676,60.2711882 37.23,60.38 C36.85,60.38 36.58,60.54 36.23,60.46 C36,60.19 36.35,59.76 35.92,59.61 C35.49,59.46 35.19,60.34 34.62,60.04 C34.35,59.88 34.08,59.76 33.97,59.5 C33.86,59.24 34.27,59.04 34.5,58.88 C35.77,58.73 37.42,58.5 37.88,57.12 C37.96,56.47 37.65,55.93 37.77,55.35 C37.5283423,54.6312989 36.8766129,54.1296648 36.12,54.08 C35.42,53.89 34.66,54.16 34.12,53.66 C33.93,53.51 33.7,53.35 33.46,53.47 C33.22,53.59 33.2,53.77 32.96,53.66 C32.72,53.55 32.5,53.2 32.27,53.47 C31.8929955,54.4913299 31.054777,55.2739145 30.01,55.58 C29.85,55.31 30.16,55 30.28,54.7 C30.6286861,53.9542564 30.8839509,53.1683094 31.04,52.36 C31.4425516,51.9570518 31.605574,51.3732041 31.47,50.82 C30.8434543,49.5041891 30.6274188,48.0302692 30.85,46.59 C31.1985416,44.9231243 30.6747442,43.1934624 29.46,42 C28.73,41.58 28.12,40.85 27.24,40.7 C26.66,40.51 25.82,40.7 25.51,40.16 C25.58,39.55 26.24,39.16 26.51,38.66 L27.51,37.13 C27.94,37.05 27.82,37.66 28.24,37.63 C29.05,37.63 29.01,36.28 29.86,36.7 C30.24,37.24 30.86,37.43 31.24,37.89 C31.6993434,40.1074566 32.6720219,42.1863856 34.08,43.96 C35.23,45.46 37,46.57 38.85,46.04 C39.34,45.61 40.04,45.15 40.15,44.43 C40.65,40.93 36.15,39.2 36.54,35.74 C36.85,32.48 40.19,30.74 42.84,29.45 C44.3,28.68 46.14,27.64 46.26,25.76 C46.2287517,25.5901467 46.2533084,25.4147417 46.33,25.26 C46.87,25.45 46.83,26.1 46.87,26.6 L46.86,26.56 Z" id="Path" fill="#FFFFFF" fill-rule="nonzero"></path>
            <path d="M23,36.93 C23.42,37.01 23.92,36.47 24.11,37.05 C24.1093381,37.8822444 23.9392153,38.7056385 23.61,39.47 C23.23,39.85 22.66,39.54 22.23,39.74 C21.8,39.94 21.54,41.31 20.81,40.39 C20.51,40.28 20.31,40.58 20.16,40.74 C19.8917981,41.4665624 19.5030158,42.1427056 19.01,42.74 C18.89,42.82 18.7,42.9 18.58,42.74 C18.51,42.24 18.89,41.36 18.16,41.2 C17.8620147,41.219331 17.573441,41.3120868 17.32,41.47 C16.74,41.47 15.97,41.47 15.66,42.01 C15.59,42.28 15.55,42.66 15.2,42.7 C14.86,42.55 14.4,42.43 14.2,41.97 C14.04,41.85 13.81,41.7 13.62,41.89 C13.43,42.08 13.2,42.74 12.7,42.74 C12.3500952,42.7297352 12.0075214,42.6372403 11.7,42.47 C11.78,41.59 12.78,41.47 13.39,41.13 C14.62,40.86 15.54,40.13 16.77,39.86 C18.650788,39.0100303 20.3359314,37.781067 21.72,36.25 C21.9382709,36.1499317 22.1712708,36.0857723 22.41,36.06 C22.57,36.36 22.57,36.79 22.99,36.86 L23,36.93 Z" id="Path" fill="#FFFFFF" fill-rule="nonzero"></path>
            <path d="M13.64,40.47 C13.2594044,40.7405836 12.7717859,40.8113069 12.33,40.66 C12.1,40.43 12.22,40.01 12.18,39.66 C12.29,39.39 12.64,39.47 12.83,39.58 C13.1,39.85 13.64,40.01 13.64,40.47 L13.64,40.47 Z" id="Path" fill="#FFFFFF" fill-rule="nonzero"></path>
            <path d="M30.08,45.42 C30.0884913,45.9461224 29.9536764,46.4646412 29.69,46.92 C28.9825631,47.5438477 28.4660127,48.3550745 28.2,49.26 C28.2,49.91 28.12,50.53 28.08,51.14 C27.89,51.3 27.74,51.07 27.62,50.95 C27.31,50.49 27.39,49.45 26.62,49.61 C26.0917034,50.0283588 25.8505605,50.7128933 26,51.37 C26.34,51.87 27,52.26 26.65,52.91 C26.07,53.22 26.23,54.1 25.46,54.18 C24.31,54.33 23.12,53.83 22.19,54.64 C21.9035389,54.922383 21.6817691,55.2635672 21.54,55.64 C21,55.71 21.16,54.98 20.89,54.64 C20.62,54.3 20.31,54.52 20.04,54.37 C19.62,54.21 19.2,53.75 18.7,54.1 C18.2,54.45 17.78,54.87 17.28,54.44 L16.59,54.25 C16.59,54.02 16.82,53.71 16.59,53.48 L15.29,53 C15.21,52.88 15.29,52.73 15.41,52.65 C16.52,51.92 17.79,52.77 19.09,52.53 C19.9348367,52.3271365 20.8109622,52.2897823 21.67,52.42 C22.17,52.42 22.78,52.58 23.09,52.15 C23.3226572,51.8659907 23.3545456,51.4673855 23.17,51.15 C22.78,50.31 21.55,50.15 21.4,49.15 C21.3223989,48.9495715 21.1725619,48.7854643 20.98,48.69 C20.67,48.57 20.47,48.92 20.17,48.77 C20.09,48.5 20.01,48.15 19.71,48.03 C19.13,48.03 18.44,48.3 17.94,47.92 C18.02,47.61 18.4,47.69 18.63,47.53 C19.412148,47.2910229 20.1613053,46.9550779 20.86,46.53 L22,46.3 C23.12,44.5 25.38,44.62 27.3,44.54 L29.16,44 C29.81,44.16 29.96,44.92 30.08,45.46 L30.08,45.42 Z" id="Path" fill="#FFFFFF" fill-rule="nonzero"></path>
            <path d="M17.83,51.64 C17.48,51.87 17.02,51.72 16.64,51.64 C16.4246619,51.4169876 16.3249313,51.1067146 16.37,50.8 C16.94,50.53 17.56,51.1 17.83,51.6 L17.83,51.64 Z" id="Path" fill="#FFFFFF" fill-rule="nonzero"></path>
            <path d="M35,57.86 C35,58.06 34.77,58.02 34.7,58.02 C34.63,58.02 34.54,57.94 34.47,57.86 C34.47,57.52 34.93,57.71 35,57.86 L35,57.86 Z" id="Path" fill="#FFFFFF" fill-rule="nonzero"></path>
            <path d="M30,25.91 C30.0330507,26.0331573 30.0097355,26.1646314 29.9363515,26.268914 C29.8629674,26.3731966 29.7470845,26.4395303 29.62,26.45 C29.1776241,26.5366596 28.7204791,26.4065777 28.39,26.1 C28.04,25.83 28.23,25.37 28.31,25.03 C28.4605068,24.8467979 28.7273425,24.8118031 28.92,24.95 C29.3368399,25.2161496 29.7026194,25.5548344 30,25.95 L30,25.91 Z" id="Path" fill="#231F20" fill-rule="nonzero"></path>
            <path d="M32.19,26.56 C32.1763589,26.8755527 32.0525079,27.1763337 31.84,27.41 C31.766453,27.4624251 31.6715639,27.4746036 31.5871618,27.4424504 C31.5027597,27.4102972 31.4400245,27.3380713 31.42,27.25 C31.3648357,26.9425306 31.4660173,26.6277435 31.69,26.41 C31.84,26.29 32.15,26.33 32.19,26.56 L32.19,26.56 Z" id="Path" fill="#231F20" fill-rule="nonzero"></path>
            <path d="M29.73,29.33 L29.73,29.98 C29,30.71 29,31.82 28,32.25 C27.8762614,32.2730467 27.7484839,32.2443831 27.6464465,32.1706894 C27.5444092,32.0969958 27.4770256,31.9847097 27.46,31.86 C27.3699893,31.4044032 27.3699893,30.9355968 27.46,30.48 C27.89,30.25 28,31.1 28.35,30.71 C28.5975552,30.1367296 28.9351466,29.6067111 29.35,29.14 C29.493265,29.1191282 29.6326966,29.1970458 29.69,29.33 L29.73,29.33 Z" id="Path" fill="#231F20" fill-rule="nonzero"></path>
            <polygon id="Path" fill="#231F20" fill-rule="nonzero" points="0.38 17.38 59.03 17.38 59.03 21.41 0.38 21.41 0.38 17.38"></polygon>
            <polygon id="Path" stroke="#231F20" stroke-width="0.13" points="0.38 17.38 59.03 17.38 59.03 21.41 0.38 21.41 0.38 17.38"></polygon>
            <polygon id="Path" fill="#FFFFFF" fill-rule="nonzero" points="43.98 18.1 50.65 18.1 50.65 20.69 43.98 20.69 43.98 18.1"></polygon>
            <polygon id="Path" fill="#FFFFFF" fill-rule="nonzero" points="29.5 18.1 36.16 18.1 36.16 20.69 29.5 20.69 29.5 18.1"></polygon>
            <polygon id="Path" fill="#FFFFFF" fill-rule="nonzero" points="14.92 18.1 21.57 18.1 21.57 20.69 14.92 20.69 14.92 18.1"></polygon>
            <polygon id="Path" fill="#FFFFFF" fill-rule="nonzero" points="1.09 18.1 7.14 18.1 7.14 20.69 1.09 20.69 1.09 18.1"></polygon>
            <path d="M56.36,2.9 C56.83,3.5 56.52,4.33 56.64,5.05 C57.15,5.49 58.27,5.05 58.38,6.05 C58.4196874,6.39531164 58.2891706,6.73838433 58.03,6.97 C57.67,7.33 57.03,6.97 56.71,7.37 C56.59,8.56 56.71,9.87 56.71,11.22 C57.07,11.46 57.55,11.42 57.95,11.62 C58.1722414,11.8308946 58.3107529,12.1150207 58.34,12.42 C58.3016454,12.7308959 58.087465,12.9918066 57.79,13.09 C57.47,13.25 56.91,13.09 56.79,13.53 C56.63,14.16 56.79,14.88 56.71,15.53 C56.2529243,15.6973786 55.7654581,15.7655557 55.28,15.73 L50.59,15.73 C50.15,15.96 49.68,16.4 49.08,16.16 C48.08,15.53 46.74,15.73 45.58,15.69 L42.08,15.69 C41.45,15.13 41.92,14.18 41.72,13.5 C41.49,13.1 40.85,13.26 40.45,13.06 C40.1360808,12.8930548 39.9723639,12.5369706 40.05,12.19 C40.1241239,11.8196581 40.4337265,11.5426453 40.81,11.51 C41.09,11.35 41.61,11.63 41.72,11.19 C41.72,9.96 41.64,8.77 41.72,7.61 C41.64,6.9 40.72,7.34 40.28,7.06 C39.9650663,6.79757144 39.8421969,6.3695104 39.97,5.98 C40.28,5.31 41.08,5.47 41.67,5.27 L41.75,5.07 L41.83,3 L42.03,2.84 L47.48,2.96 C48.0989863,3.02056727 48.7037579,3.18274068 49.27,3.44 C50.42,2.57 52.13,3 53.52,2.76 C54.52,2.96 55.47,2.76 56.43,3 L56.36,2.9 Z" id="Path" fill="#231F20" fill-rule="nonzero"></path>
            <path d="M56.36,2.9 C56.83,3.5 56.52,4.33 56.64,5.05 C57.15,5.49 58.27,5.05 58.38,6.05 C58.4196874,6.39531164 58.2891706,6.73838433 58.03,6.97 C57.67,7.33 57.03,6.97 56.71,7.37 C56.59,8.56 56.71,9.87 56.71,11.22 C57.07,11.46 57.55,11.42 57.95,11.62 C58.1722414,11.8308946 58.3107529,12.1150207 58.34,12.42 C58.3016454,12.7308959 58.087465,12.9918066 57.79,13.09 C57.47,13.25 56.91,13.09 56.79,13.53 C56.63,14.16 56.79,14.88 56.71,15.53 C56.2529243,15.6973786 55.7654581,15.7655557 55.28,15.73 L50.59,15.73 C50.15,15.96 49.68,16.4 49.08,16.16 C48.08,15.53 46.74,15.73 45.58,15.69 L42.08,15.69 C41.45,15.13 41.92,14.18 41.72,13.5 C41.49,13.1 40.85,13.26 40.45,13.06 C40.1360808,12.8930548 39.9723639,12.5369706 40.05,12.19 C40.1241239,11.8196581 40.4337265,11.5426453 40.81,11.51 C41.09,11.35 41.61,11.63 41.72,11.19 C41.72,9.96 41.64,8.77 41.72,7.61 C41.64,6.9 40.72,7.34 40.28,7.06 C39.9650663,6.79757144 39.8421969,6.3695104 39.97,5.98 C40.28,5.31 41.08,5.47 41.67,5.27 L41.75,5.07 L41.83,3 L42.03,2.84 L47.48,2.96 C48.0989863,3.02056727 48.7037579,3.18274068 49.27,3.44 C50.42,2.57 52.13,3 53.52,2.76 C54.52,2.96 55.47,2.76 56.43,3 L56.36,2.9 Z" id="Path" stroke="#231F20" stroke-width="0.13"></path>
            <path d="M36.85,2.76 C37.09,2.76 37.33,2.92 37.52,3.04 C37.72,3.79 37.52,4.43 37.68,5.14 C38.2,5.34 38.96,5.14 39.23,5.82 C39.3874892,6.14180521 39.3607864,6.52327409 39.16,6.82 C38.76,7.34 37.84,6.82 37.57,7.46 C37.4699937,8.71801562 37.4699937,9.98198438 37.57,11.24 C37.96,11.63 38.68,11.32 39.04,11.83 C39.2369747,12.0620384 39.3079398,12.3757786 39.23,12.67 C38.92,13.19 38.23,13.19 37.68,13.31 C37.45,13.5 37.68,13.86 37.57,14.14 C37.37,14.66 37.84,15.29 37.25,15.61 C35.62,15.85 34.07,15.53 32.4,15.61 L30.81,15.61 C30.37,15.89 29.81,16.33 29.29,16.01 L28.29,15.57 C27.1,15.57 25.98,15.57 24.79,15.57 C24,15.57 22.88,15.89 22.37,15.13 C22.4499022,14.4991868 22.4499022,13.8608132 22.37,13.23 C21.77,13.03 20.78,13.3 20.46,12.55 C20.4066736,12.2813038 20.4345224,12.0028158 20.54,11.75 C20.97,11.12 21.97,11.67 22.41,11.16 L22.41,9.41 C22.4703466,8.64118237 22.4703466,7.86881763 22.41,7.1 C21.81,6.86 20.78,7.18 20.66,6.27 C20.6002476,6.05320448 20.6345004,5.82127111 20.7543694,5.63100274 C20.8742385,5.44073437 21.0686534,5.30970316 21.29,5.27 C21.69,5.15 22.29,5.35 22.45,4.99 L22.57,3.13 C23.04,2.33 24.2,2.81 24.91,2.69 L28.53,2.69 C29.09,2.77 29.6,3.32 30.16,2.97 C32.31,2.09 34.73,2.85 36.96,2.61 L36.85,2.76 Z" id="Path" fill="#231F20" fill-rule="nonzero"></path>
            <path d="M36.85,2.76 C37.09,2.76 37.33,2.92 37.52,3.04 C37.72,3.79 37.52,4.43 37.68,5.14 C38.2,5.34 38.96,5.14 39.23,5.82 C39.3874892,6.14180521 39.3607864,6.52327409 39.16,6.82 C38.76,7.34 37.84,6.82 37.57,7.46 C37.4699937,8.71801562 37.4699937,9.98198438 37.57,11.24 C37.96,11.63 38.68,11.32 39.04,11.83 C39.2369747,12.0620384 39.3079398,12.3757786 39.23,12.67 C38.92,13.19 38.23,13.19 37.68,13.31 C37.45,13.5 37.68,13.86 37.57,14.14 C37.37,14.66 37.84,15.29 37.25,15.61 C35.62,15.85 34.07,15.53 32.4,15.61 L30.81,15.61 C30.37,15.89 29.81,16.33 29.29,16.01 L28.29,15.57 C27.1,15.57 25.98,15.57 24.79,15.57 C24,15.57 22.88,15.89 22.37,15.13 C22.4499022,14.4991868 22.4499022,13.8608132 22.37,13.23 C21.77,13.03 20.78,13.3 20.46,12.55 C20.4066736,12.2813038 20.4345224,12.0028158 20.54,11.75 C20.97,11.12 21.97,11.67 22.41,11.16 L22.41,9.41 C22.4703466,8.64118237 22.4703466,7.86881763 22.41,7.1 C21.81,6.86 20.78,7.18 20.66,6.27 C20.6002476,6.05320448 20.6345004,5.82127111 20.7543694,5.63100274 C20.8742385,5.44073437 21.0686534,5.30970316 21.29,5.27 C21.69,5.15 22.29,5.35 22.45,4.99 L22.57,3.13 C23.04,2.33 24.2,2.81 24.91,2.69 L28.53,2.69 C29.09,2.77 29.6,3.32 30.16,2.97 C32.31,2.09 34.73,2.85 36.96,2.61 L36.85,2.76 Z" id="Path" stroke="#231F20" stroke-width="0.13"></path>
            <path d="M10,3.2 C11.95,2.36 14.14,2.96 16.28,2.84 C16.84,2.96 17.67,2.56 18.03,3.16 C18.03,3.79 18.03,4.39 18.03,5.02 C18.23,5.46 18.87,5.1 19.22,5.34 C19.42,5.46 19.66,5.58 19.7,5.82 C19.7996012,6.11597917 19.7552126,6.44149544 19.58,6.7 C19.18,7.13 18.67,6.97 18.15,7.09 L18,7.33 C17.9199735,8.42854449 17.9199735,9.53145551 18,10.63 C18,10.87 17.88,11.19 18.16,11.35 C18.6891704,11.2786855 19.2261648,11.4031544 19.67,11.7 C19.8272295,12.0098159 19.8559744,12.3691278 19.75,12.7 C19.51,13.89 17.69,12.54 17.88,13.93 C17.9542987,14.5002612 17.9272154,15.0791664 17.8,15.64 C15.66,15.64 13.47,15.48 11.44,15.64 C11.0636417,15.9697479 10.5892584,16.1665292 10.09,16.2 C9.68320286,16.0712565 9.31064311,15.8525058 9,15.56 C7.05,15.48 5.14,15.48 3.27,15.44 C2.67,14.92 3.11,14.09 2.91,13.33 C2.59,12.98 2.12,13.26 1.76,13.06 C1.48,13.06 1.4,12.74 1.24,12.54 C1.24,12.1 1.24,11.74 1.56,11.47 C1.91499216,11.288652 2.31210587,11.2057761 2.71,11.23 L2.91,11.03 C2.96244594,9.71625148 2.93573092,8.40053681 2.83,7.09 C2.64,6.81 2.28,7.09 2.04,6.85 C1.8,6.61 1.32,6.65 1.2,6.26 C1.05645792,5.94994797 1.12020796,5.58338523 1.36,5.34 C1.8,4.87 2.56,5.42 3,5 L3.11,3 C3.43,2.44 4.19,2.72 4.74,2.72 C5.79660377,2.6 6.86339623,2.6 7.92,2.72 C8.63645077,2.75438604 9.34093126,2.91695846 10,3.2 Z" id="Path" fill="#231F20" fill-rule="nonzero"></path>
            <path d="M10,3.2 C11.95,2.36 14.14,2.96 16.28,2.84 C16.84,2.96 17.67,2.56 18.03,3.16 C18.03,3.79 18.03,4.39 18.03,5.02 C18.23,5.46 18.87,5.1 19.22,5.34 C19.42,5.46 19.66,5.58 19.7,5.82 C19.7996012,6.11597917 19.7552126,6.44149544 19.58,6.7 C19.18,7.13 18.67,6.97 18.15,7.09 L18,7.33 C17.9199735,8.42854449 17.9199735,9.53145551 18,10.63 C18,10.87 17.88,11.19 18.16,11.35 C18.6891704,11.2786855 19.2261648,11.4031544 19.67,11.7 C19.8272295,12.0098159 19.8559744,12.3691278 19.75,12.7 C19.51,13.89 17.69,12.54 17.88,13.93 C17.9542987,14.5002612 17.9272154,15.0791664 17.8,15.64 C15.66,15.64 13.47,15.48 11.44,15.64 C11.0636417,15.9697479 10.5892584,16.1665292 10.09,16.2 C9.68320286,16.0712565 9.31064311,15.8525058 9,15.56 C7.05,15.48 5.14,15.48 3.27,15.44 C2.67,14.92 3.11,14.09 2.91,13.33 C2.59,12.98 2.12,13.26 1.76,13.06 C1.48,13.06 1.4,12.74 1.24,12.54 C1.24,12.1 1.24,11.74 1.56,11.47 C1.91499216,11.288652 2.31210587,11.2057761 2.71,11.23 L2.91,11.03 C2.96244594,9.71625148 2.93573092,8.40053681 2.83,7.09 C2.64,6.81 2.28,7.09 2.04,6.85 C1.8,6.61 1.32,6.65 1.2,6.26 C1.05645792,5.94994797 1.12020796,5.58338523 1.36,5.34 C1.8,4.87 2.56,5.42 3,5 L3.11,3 C3.43,2.44 4.19,2.72 4.74,2.72 C5.79660377,2.6 6.86339623,2.6 7.92,2.72 C8.63645077,2.75438604 9.34093126,2.91695846 10,3.2 Z" id="Path" stroke="#231F20" stroke-width="0.13"></path>
            <path d="M9.71,3.69 L9.87,4.05 C10,6.72 10,9.42 10,12.2 L9.92,13.2 C9.25,13.2 8.57,12.88 7.81,12.96 C7.05465069,12.9820348 6.29876873,12.9418995 5.55,12.84 C5.15,11.92 5.43,11.01 5.35,10.01 C5.35,8.01 5.43,5.6 5.43,3.45 C5.43,3.29 5.63,3.21 5.75,3.17 C7.14,3.29 8.65,2.94 9.75,3.65 L9.71,3.69 Z" id="Path" fill="#FFFFFF" fill-rule="nonzero"></path>
            <path d="M4.43,3.45 C4.07,3.73 3.59,4.25 3.75,4.73 C3.91,8.07 3.75,11.05 3.91,14.19 L4.19,14.51 C5.79371684,14.4071478 7.40340696,14.4473064 9,14.63 C9.08,14.63 9.08,14.78 9,14.87 C8.56729809,14.9690591 8.12075184,14.9927396 7.68,14.94 L3.68,14.87 C3.4,14.63 3.52,14.07 3.52,13.75 C3.52,13.43 3.64,12.88 3.2,12.64 C2.76,12.4 2.09,12.64 1.73,12.24 C2.01,11.45 3.28,12.08 3.52,11.24 C3.64,9.77 3.4,8.24 3.52,6.9 C3.36,6.11 2.52,6.35 1.93,6.23 C1.81552365,6.14773575 1.75435117,6.01009766 1.77,5.87 C2.25,5.39 3.2,5.95 3.56,5.27 C3.6388155,4.66316671 3.67889665,4.05192917 3.68,3.44 C3.92168426,3.26050763 4.23772525,3.21535892 4.52,3.32 L4.52,3.48 L4.43,3.45 Z" id="Path" fill="#FFFFFF" fill-rule="nonzero"></path>
            <path d="M15.64,3.49 C15.64,6.72 15.64,9.78 15.64,12.92 C14.05,13.08 12.26,12.8 10.64,13.24 C10.28,12.92 10.56,12.4 10.48,11.96 C10.4,10.96 10.48,9.78 10.48,8.7 C10.48,7.15 10.4,5.4 10.48,3.89 C10.7591367,3.44458126 11.2670804,3.1964256 11.79,3.25 L15.53,3.25 L15.65,3.45 L15.64,3.49 Z" id="Path" fill="#FFFFFF" fill-rule="nonzero"></path>
            <path d="M17.47,3.45 C17.58,4.09 17.31,4.93 17.71,5.56 C18.1,5.8 18.71,5.68 19.1,5.76 C19.2090959,5.93072659 19.2090959,6.14927341 19.1,6.32 C18.66,6.75 17.74,6.2 17.51,6.91 C17.51,8.46 17.43,9.97 17.51,11.57 L17.75,11.76 C18.27,11.84 18.91,11.64 19.27,12.04 C19.27,12.28 19.27,12.52 19.03,12.6 C18.51,12.72 17.75,12.44 17.48,13 C17.4715453,13.6352382 17.4281464,14.2695302 17.35,14.9 L17.08,15.02 L11.47,14.94 C11.35,14.87 11.47,14.78 11.47,14.71 L12.03,14.51 L16.56,14.51 C17.04,14.39 17.04,13.79 17.08,13.43 C17.08,11.21 17.08,9.26 17.08,7.11 C17.1751903,6.0753571 17.1718419,5.03400936 17.07,4 C17.07,3.76 16.67,3.6 16.63,3.32 C16.9063304,3.17323271 17.2458177,3.22173089 17.47,3.44 L17.47,3.45 Z" id="Path" fill="#FFFFFF" fill-rule="nonzero"></path>
            <path d="M43.07,3.41 C42.99,3.73 42.6,3.97 42.47,4.29 C42.52,7.55 42.47,11.09 42.6,14.47 L42.87,14.63 C44.62,14.63 46.49,14.27 48,14.98 C48.08,14.98 48,14.98 48,15.06 C46.09,15.06 44.18,15.18 42.32,15.06 L42.16,14.87 C42.2006641,14.1943329 42.1193677,13.5168633 41.92,12.87 C41.48,12.47 40.21,12.99 40.53,12.07 C41,11.71 41.76,12.19 42.04,11.6 C42.04,9.93 42.12,8.45 42.04,6.9 C41.68,6.43 41.04,6.74 40.53,6.63 C40.37,6.47 40.25,6.23 40.41,6.03 C40.92,5.59 42.41,6.15 42.16,4.92 C42.32,4.4 41.92,3.4 42.64,3.36 C42.79,3.36 42.99,3.36 43.11,3.48 L43.07,3.41 Z" id="Path" fill="#FFFFFF" fill-rule="nonzero"></path>
            <path d="M56,3.49 C56.16,4.25 55.85,5 56.28,5.68 C56.76,5.8 57.51,5.52 57.75,6 C57.75,7 56.4,6.2 56.12,7 C56.24,8.51 56,9.75 56.12,11.38 C56.0449479,11.4200834 55.9921936,11.4921186 55.9766308,11.5757685 C55.9610681,11.6594184 55.9843855,11.7456065 56.04,11.81 C56.48,12.17 57.04,11.58 57.47,11.97 C57.75,12.05 57.59,12.29 57.59,12.45 C57.24,12.97 56.36,12.37 56.12,13.05 L56.04,15.05 L55.76,15.17 L50.48,15.17 C50.4,15.09 50.48,15.05 50.48,15.01 L51.11,14.78 L55.11,14.78 C55.31,14.78 55.59,14.58 55.59,14.3 C55.59,11.16 55.51,7.9 55.51,4.48 L55.03,3.48 C55.23,3.28 55.79,3.25 55.9,3.56 L56,3.49 Z" id="Path" fill="#FFFFFF" fill-rule="nonzero"></path>
            <path d="M43.67,4.73 L43.67,13.27 C43.59,13.51 43.31,13.63 43.15,13.79 L43,13.67 C43,12.76 43,11.72 43,10.85 L43,10.17 C43,8.31 43,6.24 43,4.33 C43.16,4.17 43.32,3.85 43.52,3.77 C43.615485,4.09520838 43.6692491,4.43123416 43.68,4.77 L43.67,4.73 Z" id="Path" fill="#FFFFFF" fill-rule="nonzero"></path>
            <path d="M55.28,4.29 C55.2,6.52 55.28,8.62 55.28,10.73 C55.28,11.73 55.28,12.6 55.28,13.51 C55.28,13.59 55.28,13.63 55.16,13.67 C54.48,13.39 54.72,12.67 54.68,12.04 C54.6467008,11.1658649 54.6734302,10.290475 54.76,9.42 L54.64,9.14 L54.64,3.93 C54.8,3.57 55.12,4.09 55.24,4.29 L55.28,4.29 Z" id="Path" fill="#FFFFFF" fill-rule="nonzero"></path>
            <path d="M4.82,3.81 C4.98,7.03 4.82,10.13 4.82,13.19 C4.77535845,13.3820115 4.61563675,13.525761 4.42,13.55 C4.22874865,12.5819064 4.19162446,11.5896783 4.31,10.61 C4.23,8.61 4.31,6.32 4.31,4.29 C4.41903299,4.07196665 4.60395453,3.90126984 4.83,3.81 L4.82,3.81 Z" id="Path" fill="#FFFFFF" fill-rule="nonzero"></path>
            <path d="M16.67,4.17 C16.67,7.39 16.67,10.57 16.59,13.47 C16.51,13.63 16.35,13.47 16.23,13.35 C16.1289383,12.8382753 16.1289383,12.3117247 16.23,11.8 C16.11,9.22 16.23,6.59 16.23,3.97 C16.39,3.77 16.63,3.97 16.71,4.17 L16.67,4.17 Z" id="Path" fill="#FFFFFF" fill-rule="nonzero"></path>
            <path d="M49.43,8.23 C49.35,8.42 49,8.42 48.8,8.34 L48.6,8.26 C48.72,7.83 48.6,7.26 48.96,6.99 C49.31,7.23 49.27,7.79 49.43,8.23 L49.43,8.23 Z" id="Path" fill="#FFFFFF" fill-rule="nonzero"></path>
            <path d="M16.23,13.91 C16.11,14.15 15.76,14.03 15.52,14.11 L14.25,14.11 C13.2504832,14.0141148 12.242986,14.0409814 11.25,14.19 C11.0751449,14.157346 10.9463391,14.0077651 10.94,13.83 C11.05,13.47 11.49,13.59 11.81,13.47 C13.04,13.47 14.51,13.47 15.71,13.47 C15.922559,13.5585482 16.1012528,13.7127154 16.22,13.91 L16.23,13.91 Z" id="Path" fill="#FFFFFF" fill-rule="nonzero"></path>
            <path d="M9.55,13.75 C9.55,13.95 9.39,14.15 9.2,14.23 C7.87564326,14.0358569 6.53848883,13.9422561 5.2,13.95 L5.2,13.95 C5.2700268,13.6964298 5.49706107,13.5180457 5.76,13.51 C7.04978534,13.457891 8.34132649,13.5518213 9.61,13.79 L9.55,13.75 Z" id="Path" fill="#FFFFFF" fill-rule="nonzero"></path>
            <path d="M48.6,13.87 C48.72,13.95 48.72,14.15 48.6,14.19 C48.12,14.75 47.53,14.07 46.89,14.19 C45.89,14.07 44.7,14.19 43.67,14.07 C43.95,13.19 45.18,13.71 45.86,13.55 C46.77,13.67 47.8,13.39 48.6,13.87 L48.6,13.87 Z" id="Path" fill="#FFFFFF" fill-rule="nonzero"></path>
            <path d="M54.44,13.67 C54.6477967,13.7806524 54.8052678,13.9667546 54.88,14.19 C53.25,14.39 51.66,13.99 50.11,14.43 C50.0092384,14.4060309 49.9242674,14.3386647 49.877948,14.246026 C49.8316286,14.1533873 49.8287183,14.0449907 49.87,13.95 C50.19,13.59 50.71,13.67 51.18,13.59 L54.44,13.67 L54.44,13.67 Z" id="Path" fill="#FFFFFF" fill-rule="nonzero"></path>
            <path d="M10.87,14.51 C10.9829267,14.8215386 10.8866828,15.1704227 10.63,15.38 C10.4447286,15.5781745 10.1495296,15.6273743 9.91,15.5 C9.67,15.5 9.63,15.18 9.59,14.98 C9.51,14.55 9.95,14.39 10.19,14.07 C10.4685765,14.1142022 10.7155306,14.273996 10.87,14.51 L10.87,14.51 Z" id="Path" fill="#FFFFFF" fill-rule="nonzero"></path>
            <path d="M49.75,14.75 C49.75,15.1 49.75,15.62 49.31,15.62 C49.017792,15.6744761 48.7306876,15.5030705 48.64,15.22 C48.5804588,14.854284 48.7563783,14.4904504 49.08,14.31 C49.43,14.31 49.59,14.55 49.75,14.75 L49.75,14.75 Z" id="Path" fill="#FFFFFF" fill-rule="nonzero"></path>
            <path d="M35.22,3.57 C35.22,6.67 35.22,9.86 35.22,12.96 L35,13 C33.29,13.15 31.62,12.72 30.07,13.28 C29.79,13.12 30.07,12.64 29.95,12.36 L29.95,4.13 C29.9563745,3.85753371 30.1320493,3.6179771 30.39,3.53 C30.83,3.21 31.39,3.34 31.98,3.26 L35.12,3.34 L35.2,3.57 L35.22,3.57 Z" id="Path" fill="#FFFFFF" fill-rule="nonzero"></path>
            <path d="M37.09,3.49 C37.0501178,4.18231882 37.0903849,4.8769274 37.21,5.56 C37.68,6 39.04,5.36 38.76,6.44 C38.32,6.72 37.76,6.52 37.25,6.59 L37.13,6.75 C36.93,8.34 37.25,9.97 37.13,11.41 C37.13,11.57 37.25,11.84 37.49,11.88 C37.92,11.88 38.6,11.6 38.76,12.16 C38.68,13.16 37.45,12.24 37.13,13 C37.01,13.71 37.33,14.35 37.05,15 L36.85,15.12 C34.85,15.12 32.85,15.12 30.92,15.04 C30.85,15.04 30.92,14.88 30.92,14.85 L31.28,14.65 C32.87,14.49 34.62,14.65 36.28,14.49 C36.3968865,14.4798608 36.5048828,14.4234591 36.5799927,14.3333273 C36.6551026,14.2431954 36.6911049,14.1267987 36.68,14.01 C36.68,11.01 36.68,7.85 36.68,4.47 C36.6,3.99 36.12,3.71 36.04,3.27 C36.32,3.27 36.84,3.12 37.04,3.47 L37.09,3.49 Z" id="Path" fill="#FFFFFF" fill-rule="nonzero"></path>
            <path d="M23.89,3.33 C23.81,3.69 23.49,3.81 23.33,4.09 C23.09,4.73 23.33,5.36 23.25,6.09 C23.25,8.83 23.25,11.42 23.25,14.09 C23.2562837,14.3100778 23.4004847,14.5023458 23.61,14.57 L27.86,14.65 C28.1068307,14.6771798 28.3417542,14.7704583 28.54,14.92 C28.46,15.16 28.14,15.08 27.94,15.12 C26.35,15.12 24.64,15.2 23.09,15 L23,14.87 C23.051151,14.1549431 22.9558747,13.4369681 22.72,12.76 C22.25,12.56 21.65,12.76 21.13,12.6 C20.89,12.48 20.97,12.16 21.13,12 C21.65,11.72 22.64,12.16 22.92,11.45 C22.92,9.9 23,8.45 22.92,6.83 C22.49,6.2 21.57,6.83 21.17,6.2 C21.33,5.28 22.6,6.08 22.96,5.32 L23.08,3.45 C23.32,3.21 23.64,3.29 23.92,3.33 L23.89,3.33 Z" id="Path" fill="#FFFFFF" fill-rule="nonzero"></path>
            <path d="M24.48,3.89 C24.6,6.64 24.32,9.1 24.48,11.89 C24.24,12.53 24.76,13.44 23.85,13.6 C23.69,10.86 23.85,7.92 23.73,4.94 C23.6736336,4.46953594 23.9065875,4.01152482 24.32,3.78 L24.48,3.94 L24.48,3.89 Z" id="Path" fill="#FFFFFF" fill-rule="nonzero"></path>
            <path d="M36.29,4.37 C36.29,7.37 36.37,10.65 36.17,13.59 C36.01,13.59 35.82,13.43 35.78,13.27 C35.6874912,12.0155938 35.6607879,10.7572013 35.7,9.5 C35.78,7.79 35.58,5.76 35.78,4.01 C35.97,3.89 36.29,4.13 36.29,4.37 L36.29,4.37 Z" id="Path" fill="#FFFFFF" fill-rule="nonzero"></path>
            <path d="M29,13.75 C29.15,13.75 29.36,13.95 29.24,14.15 L28.92,14.43 C27.52,13.91 25.78,14.27 24.3,14.03 C24.4119828,13.818513 24.5610118,13.6288399 24.74,13.47 C26.1653705,13.4423765 27.5905077,13.5360475 29,13.75 Z" id="Path" fill="#FFFFFF" fill-rule="nonzero"></path>
            <path d="M35.34,13.55 C35.54,13.67 35.78,13.87 35.78,14.07 L35.58,14.15 C33.9343254,14.0342661 32.280892,14.1013425 30.65,14.35 C30.41,14.35 30.13,14.35 30.09,14.07 C30.25,13.71 30.73,13.59 31.09,13.55 C32.52,13.43 33.92,13.55 35.31,13.55 L35.34,13.55 Z" id="Path" fill="#FFFFFF" fill-rule="nonzero"></path>
            <path d="M30.21,14.87 C30.21,15.18 30.21,15.58 29.81,15.58 C29.41,15.58 29.1,15.58 29.1,15.18 C29.1994104,14.8869008 29.4118273,14.6456817 29.69,14.51 C29.97,14.43 30.13,14.71 30.21,14.87 L30.21,14.87 Z" id="Path" fill="#FFFFFF" fill-rule="nonzero"></path>
            <path d="M29.41,9.86 C29.57,8.26 29.41,6.47 29.49,4.96 C29.49,4.49 29.49,3.96 29.17,3.61 C28.02,3.1 26.47,3.37 25.17,3.29 C25.09,3.29 24.93,3.29 24.97,3.41 C24.97,6.56 24.97,9.5 24.97,12.6 L25,13 C25.9627704,13.107115 26.9327885,13.1338741 27.9,13.08 C28.42,13.16 28.9,13.31 29.41,13.39 C29.4697819,12.4109117 29.4697819,11.4290883 29.41,10.45 L29.41,9.9 L29.41,9.86 Z" id="Path" fill="#FFFFFF" fill-rule="nonzero"></path>
            <path d="M29,9.74 C28.52,9.34 28.4,8.74 28,8.26 C28.16,8.03 28.44,7.99 28.64,7.79 C29.0173009,7.50192837 29.2024491,7.02748627 29.12,6.56 C29.0941888,6.13834247 28.8520791,5.7600461 28.48,5.56 C27.5829362,5.32069448 26.6444992,5.27974451 25.73,5.44 C25.6618699,5.46827045 25.6124414,5.52880283 25.5983624,5.60120935 C25.5842833,5.67361587 25.6074276,5.74825963 25.66,5.8 C25.9291368,5.90202246 26.1132029,6.15266556 26.13,6.44 C26.13,7.51 26.13,8.58 25.97,9.66 L25.54,10.13 C25.97,10.53 26.54,10.21 27.21,10.33 C27.37,10.05 26.93,9.86 26.85,9.54 C26.93,9.22 26.85,8.78 27.05,8.54 C27.65,9.06 27.84,9.9 28.56,10.37 L29.49,10.44 L29.49,9.94 C29.37,10.01 29.14,9.82 29.02,9.78 L29,9.74 Z M27.78,7.79 C27.51,7.79 27.07,7.99 26.99,7.63 C26.99,7.11 26.79,6.44 26.99,5.96 C27.3759609,5.69604939 27.9015299,5.78438032 28.18,6.16 C28.3223415,6.47286432 28.3776179,6.81834217 28.34,7.16 C28.18,7.44 28.1,7.76 27.78,7.84 L27.78,7.79 Z" id="Shape" fill="#231F20" fill-rule="nonzero"></path>
            <path d="M54.24,4.41 C54.2917477,4.02997071 54.2399239,3.6430197 54.09,3.29 L52.65,3.29 C51.65,3.45 50.47,3.14 49.65,3.65 C49.26,4.13 49.45,4.65 49.37,5.24 C49.47,5.58 49.57,5.92 49.66,6.24 L49.48,6.66 L48.87,6.55 L48.71,6.2 C48.78,5.96 48.84,5.71 48.9,5.46 C48.9,4.79 49.1,3.75 48.22,3.46 C46.91,3.34 45.72,3.3 44.33,3.3 C44.2351927,3.29835804 44.1455708,3.34316898 44.09,3.42 C44.09,6.48 44.09,9.11 44.09,12.13 C44.09,12.49 43.97,12.97 44.36,13.13 C45.52,12.97 46.55,13.13 47.67,13.13 C48.1,13.13 48.38,13.52 48.82,13.4 C48.9258348,12.0694264 48.9525485,10.7337413 48.9,9.4 C48.9,9.29 48.9,9.02 48.74,8.98 L48.74,8.62 L49.43,8.7 L49.5,8.93 L49.43,9 L49.35,13.1 C49.35,13.21 49.35,13.53 49.63,13.49 C50.86,12.78 52.38,13.25 53.81,13.1 L54.13,12.98 C54.2276036,11.94968 54.2509972,10.9136755 54.2,9.88 C54.29,8.09 54.2,6.3 54.2,4.39 L54.24,4.41 Z" id="Path" fill="#FFFFFF" fill-rule="nonzero"></path>
            <path d="M49.63,8.9 C49.8101584,9.1257463 49.8961434,9.41236317 49.87,9.7 L49.55,10.13 L49.75,10.29 C50.2676812,10.3441746 50.7906469,10.3171556 51.3,10.21 C51.18,9.97 50.91,9.9 50.75,9.74 C50.19,8.27 49.75,6.74 49.36,5.22 L48.88,5.44 C48.6,6.79 48,8 47.72,9.42 C47.65,9.7 47.37,9.74 47.17,9.9 C46.97,10.06 46.77,9.66 46.65,9.5 C46.65,8.3 46.77,7.31 46.65,6.04 C46.65,5.84 46.85,5.6 47.05,5.8 C47.25,6 47.33,6.36 47.45,6.63 C47.4903115,6.68944551 47.5636331,6.71714235 47.6331793,6.69919494 C47.7027255,6.68124754 47.7534884,6.62152889 47.76,6.55 L48,5.32 C47.84,4.92 47.49,5.32 47.17,5.32 C46.4937346,5.40301757 45.8074241,5.3206603 45.17,5.08 C44.69,5.24 44.81,5.92 44.73,6.36 C44.6883252,6.4164776 44.6883252,6.4935224 44.73,6.55 C45.13,6.32 45.33,5.68 45.88,5.84 L46,7 L45.89,9.58 C45.73,9.78 45.33,9.87 45.37,10.14 C46.096581,10.2265492 46.8290408,10.2533058 47.56,10.22 C47.9391434,10.3001532 48.3308566,10.3001532 48.71,10.22 C48.7862286,10.1422313 48.7862286,10.0177687 48.71,9.94 C48.47,9.83 48.19,9.63 48.27,9.31 C48.35,8.99 48.43,8.71 48.79,8.83 C48.8583671,8.83085077 48.9186389,8.87505006 48.94,8.94 L49.5,9.01 L49.5,9 C49.58,8.92 49.58,8.88 49.7,8.88 L49.63,8.9 Z M48.8,8.34 L48.6,8.26 C48.72,7.83 48.6,7.26 48.96,6.99 C49.31,7.23 49.27,7.79 49.43,8.23 C49.35,8.42 49,8.42 48.8,8.34 L48.8,8.34 Z" id="Shape" fill="#231F20" fill-rule="nonzero"></path>
            <path d="M53.26,5.64 C53.26,5.92 53.47,6.45 53.26,6.64 C52.98,6.4 52.94,6.16 52.49,6.04 C52.25,6.04 52.01,6.04 51.97,6.36 C51.89,7.21 52.74,7.21 53.22,7.78 C53.67912,8.23279537 53.8520323,8.90138939 53.67,9.52 C53.48,9.98 53.26,10.25 52.82,10.25 C52.38,10.25 52.13,10.05 51.82,10.25 C51.74,10.25 51.58,10.33 51.5,10.25 L51.5,8.67 C51.5382329,8.59504442 51.6158708,8.54846168 51.7,8.55 C51.95,9.08 51.78,9.68 52.51,9.72 C52.76,9.72 52.96,9.65 53,9.33 C53.08,7.91 51.22,8.26 51.26,6.8 C51.2782896,6.49004153 51.3599735,6.18713053 51.5,5.91 C51.82,5.38 52.56,5.71 53.04,5.38 C53.24,5.3 53.24,5.59 53.28,5.71 L53.26,5.64 Z" id="Path" fill="#231F20" fill-rule="nonzero"></path>
            <path d="M33.31,5.56 C32.91,5.76 32.48,6.08 32.59,6.64 C32.5180334,7.6387052 32.5180334,8.6412948 32.59,9.64 L33.23,10.2 L33.23,10.28 C32.5647165,10.3407318 31.8952835,10.3407318 31.23,10.28 C30.96,9.97 31.59,9.81 31.71,9.57 C31.8532767,8.38514409 31.8700378,7.18840373 31.76,6 C31.64,5.64 31.04,5.8 31.2,5.4 C31.8642178,5.31918894 32.5357822,5.31918894 33.2,5.4 L33.32,5.52 L33.31,5.56 Z" id="Path" fill="#231F20" fill-rule="nonzero"></path>
            <path d="M14,6.32 C13.6,6.79 13.52,5.88 13.12,5.84 C12.88,5.84 12.53,5.72 12.33,5.92 C12.2080923,6.40241761 12.2080923,6.90758239 12.33,7.39 C12.49,7.51 12.8,7.47 13,7.47 C13.24,7.31 13.36,6.87 13.68,6.91 C13.88,7.11 13.6,7.43 13.68,7.63 C13.6,7.95 13.88,8.31 13.52,8.42 C13.28,8.31 13.16,7.87 12.84,7.87 L12.29,7.87 C12.1346632,8.52761809 12.1346632,9.21238191 12.29,9.87 C12.61,10.18 13,9.87 13.36,9.87 C13.88,9.76 13.76,9.04 14.2,9.12 C14.3111908,9.44112346 14.3387236,9.78528339 14.28,10.12 L14.04,10.28 L11.21,10.28 C11.09,10.28 10.82,10.28 10.94,10.04 C11.85,9.49 11.33,8.41 11.45,7.54 C11.33,6.9 11.81,5.95 10.97,5.54 C10.97,5.3 11.21,5.38 11.29,5.3 C12.01,5.3 12.96,5.58 13.52,4.98 C13.96,5.22 13.92,5.78 13.96,6.22 L14,6.32 Z" id="Path" fill="#231F20" fill-rule="nonzero"></path>
            <path d="M9.67,5.68 C8.88,6.32 8.84,7.43 8.48,8.34 C8.16,8.86 8.32,9.61 7.8,10.05 C7.6,10.13 7.45,9.94 7.41,9.78 C7.13624726,8.54926277 6.77533735,7.33954624 6.33,6.16 C6.33,5.8 5.46,5.72 5.93,5.44 C6.53,5.36 6.93,5.52 7.52,5.44 C7.65,5.8 7.09,6 7.25,6.44 C7.6,6.96 7.49,7.76 7.92,8.28 L8.12,8.08 C8.12,7.16 9.2,6.33 8.32,5.53 C8.52,5.17 9.12,5.41 9.51,5.29 C9.59,5.37 9.87,5.45 9.67,5.65 L9.67,5.68 Z" id="Path" fill="#231F20" fill-rule="nonzero"></path>
            <path d="M315.6,39.65 C316.183684,39.5513988 316.60827,39.0418959 316.6,38.45 L316.6,27.73 C316.579427,27.1608443 316.161624,26.6845495 315.6,26.59 L315.6,26.32 L323.6,26.32 C323.882702,26.3264021 324.163143,26.268262 324.42,26.15 L324.7,26.15 L324.7,28.58 L324.43,28.58 C324.174708,27.7076078 323.334563,27.14051 322.43,27.23 L318.43,27.23 L318.43,32.36 L322,32.36 C322.509524,32.4118072 322.994294,32.1290244 323.2,31.66 L323.48,31.66 C323.48,31.88 323.48,32.53 323.48,32.79 C323.48,33.05 323.48,33.69 323.48,33.93 L323.2,33.93 C322.987142,33.4674087 322.507445,33.1875853 322,33.23 L318.43,33.23 L318.43,39 L322.43,39 C323.420685,39.1566908 324.395453,38.6387181 324.82,37.73 L325.09,37.79 L324.68,40 C323.632455,39.9118827 322.581025,39.8785039 321.53,39.9 L317.53,39.9 L315.61,39.9 L315.6,39.65 Z" id="Path" fill="#231F20" fill-rule="nonzero"></path>
            <path d="M326.73,39.68 C327.396752,39.3545262 327.976151,38.8745507 328.42,38.28 L330.58,35.7 L328.58,32.83 C328.185484,32.2376267 327.64006,31.761243 327,31.45 L327,31.2 L328.73,31.2 L330.44,31.2 L330.44,31.45 C330.17,31.6 330.06,31.77 330.08,31.98 C330.124736,32.2114522 330.220377,32.4300611 330.36,32.62 L331.63,34.43 L333.06,32.64 C333.257255,32.4269054 333.352143,32.1385926 333.32,31.85 C333.262468,31.6314544 333.074933,31.4718495 332.85,31.45 L332.85,31.2 L334.31,31.2 L335.79,31.2 L335.79,31.45 C335.077837,31.8158963 334.463958,32.3474675 334,33 L332.16,35.18 L334.45,38.46 C334.840643,39.0053073 335.37818,39.4284011 336,39.68 L336,39.93 L334.25,39.93 L332.51,39.93 L332.51,39.68 C332.738409,39.596431 332.884808,39.3727652 332.87,39.13 C332.810337,38.8862521 332.693828,38.660087 332.53,38.47 L331.1,36.47 L329.43,38.47 C329.265653,38.6507382 329.160913,38.8776768 329.13,39.12 C329.13,39.38 329.43,39.59 329.59,39.7 L329.59,39.95 L328.16,39.95 L326.76,39.95 L326.73,39.68 Z" id="Path" fill="#231F20" fill-rule="nonzero"></path>
            <path d="M345.54,38.72 C344.775563,39.6207962 343.640695,40.1219064 342.46,40.08 C341.216158,40.1953877 339.985501,39.7511104 339.102195,38.8678047 C338.21889,37.984499 337.774612,36.7538423 337.89,35.51 C337.815421,34.341214 338.227603,33.1936349 339.028798,32.3394052 C339.829994,31.4851754 340.948837,31.0003852 342.12,31 C343.060375,30.9229119 343.989132,31.2495835 344.67419,31.8983849 C345.359248,32.5471862 345.73589,33.456826 345.71,34.4 C345.713199,34.5489057 345.692951,34.6973876 345.65,34.84 L339.65,34.84 C339.37,37.27 340.72,39.09 342.73,39.09 C343.614264,39.1973578 344.503019,38.9289177 345.18,38.35 L345.54,38.72 Z M344,34.09 C344.104372,33.5242625 343.960078,32.9409775 343.603978,32.4891526 C343.247879,32.0373277 342.714464,31.7607227 342.14,31.73 C340.875081,31.8378466 339.864338,32.8276193 339.73,34.09 L344,34.09 Z" id="Shape" fill="#231F20" fill-rule="nonzero"></path>
            <path d="M355.85,38.51 C355.030259,39.4822624 353.83146,40.0543338 352.56,40.08 C351.317809,40.192214 350.090001,39.7465304 349.20903,38.8636268 C348.328058,37.9807232 347.885065,36.7519419 348,35.51 C347.93272,34.294494 348.386233,33.1078497 349.247042,32.2470415 C350.10785,31.3862334 351.294494,30.9327202 352.51,31 C353.523376,31.0172679 354.530843,31.1583134 355.51,31.42 L355.51,33.22 L355.24,33.22 C354.71582,32.2742477 353.70006,31.7082139 352.62,31.76 C350.84,31.76 349.74,33.17 349.74,35.31 C349.74,37.68 351.03,39.09 352.87,39.09 C353.856056,39.1158366 354.813521,38.7572356 355.54,38.09 L355.85,38.51 Z" id="Path" fill="#231F20" fill-rule="nonzero"></path>
            <path d="M359.11,33.31 C359.11,32.64 358.73,32.31 358.03,32.17 L358.03,31.94 L360.48,30.94 L360.72,30.94 L360.72,36.28 C360.72,37.78 361.03,38.97 362.53,38.97 C363.396623,38.9198378 364.199032,38.4967495 364.73,37.81 L364.73,33.31 C364.73,32.64 364.35,32.31 363.65,32.17 L363.65,31.94 L366.1,30.94 L366.34,30.94 L366.34,38.04 C366.34,38.71 366.55,38.88 366.8,38.88 C366.967023,38.8860955 367.133589,38.858901 367.29,38.8 L367.44,39.14 C367.133768,39.3000849 366.836645,39.4770231 366.55,39.67 C366.21,39.9 365.77,40.26 365.77,40.26 C365.258263,39.8486015 364.904885,39.2725956 364.77,38.63 C363.971931,39.4983222 362.858682,40.0099124 361.68,40.05 C360.975289,40.118236 360.276783,39.8691784 359.774217,39.3704786 C359.271652,38.8717787 359.017208,38.175217 359.08,37.47 L359.11,33.31 Z" id="Path" fill="#231F20" fill-rule="nonzero"></path>
            <path d="M370.71,31.92 L369.4,31.92 L369.4,31.41 L370.54,31.07 C371.158368,30.4173479 371.538829,29.575402 371.62,28.68 L372.32,28.68 L372.32,31.11 L374.92,31.11 L374.92,31.92 L372.32,31.92 L372.32,37.33 C372.32,38.45 372.68,38.83 373.32,38.83 C373.824447,38.826178 374.302405,38.6036174 374.63,38.22 L374.97,38.53 C374.532267,39.3999967 373.679269,39.9850176 372.71,40.08 C371.71,40.08 370.71,39.59 370.71,37.6 L370.71,31.92 Z" id="Path" fill="#231F20" fill-rule="nonzero"></path>
            <path d="M377.24,39.68 C377.69,39.48 378.17,39.25 378.17,38.85 L378.17,33.31 C378.17,32.64 377.79,32.31 377.1,32.17 L377.1,31.94 L379.55,30.94 L379.78,30.94 L379.78,38.82 C379.78,39.24 380.22,39.43 380.78,39.65 L380.78,39.9 L379,39.9 L377.29,39.9 L377.24,39.68 Z M378.91,27.4799969 C379.416718,27.5041604 379.825065,27.9039102 379.86,28.41 C379.825065,28.9160898 379.416718,29.3158396 378.91,29.3400031 C378.383936,29.3412903 377.946823,28.9347754 377.91,28.41 C377.946823,27.8852246 378.383936,27.4787097 378.91,27.4799969 Z" id="Shape" fill="#231F20" fill-rule="nonzero"></path>
            <path d="M383.18,32.45 C383.030171,31.951555 382.626321,31.5705645 382.12,31.45 L382.12,31.2 L383.75,31.2 L385.44,31.2 L385.44,31.45 C385.116939,31.4654934 384.860062,31.7267238 384.85,32.05 C384.88366,32.298501 384.961556,32.5389643 385.08,32.76 L387.26,37.94 L389.41,32.83 C389.519663,32.5748996 389.550991,32.2929508 389.5,32.02 C389.39429,31.7040175 389.111808,31.4803859 388.78,31.45 L388.78,31.2 L390.22,31.2 L391.65,31.2 L391.65,31.45 C391.071827,31.6441969 390.619471,32.1002608 390.43,32.68 L387.28,40.12 L386.54,40.12 L383.18,32.45 Z" id="Path" fill="#231F20" fill-rule="nonzero"></path>
            <path d="M400.59,38.72 C399.825563,39.6207962 398.690695,40.1219064 397.51,40.08 C396.266158,40.1953877 395.035501,39.7511104 394.152195,38.8678047 C393.26889,37.984499 392.824612,36.7538423 392.94,35.51 C392.865421,34.341214 393.277603,33.1936349 394.078798,32.3394052 C394.879994,31.4851754 395.998837,31.0003852 397.17,31 C398.110375,30.9229119 399.039132,31.2495835 399.72419,31.8983849 C400.409248,32.5471862 400.78589,33.456826 400.76,34.4 C400.763199,34.5489057 400.742951,34.6973876 400.7,34.84 L394.7,34.84 C394.42,37.27 395.77,39.09 397.78,39.09 C398.66715,39.1952714 399.55816,38.9272439 400.24,38.35 L400.59,38.72 Z M399.05,34.09 C399.154372,33.5242625 399.010078,32.9409775 398.653978,32.4891526 C398.297879,32.0373277 397.764464,31.7607227 397.19,31.73 C395.926824,31.8416407 394.918095,32.8294419 394.78,34.09 L399.05,34.09 Z" id="Shape" fill="#231F20" fill-rule="nonzero"></path>
            <path d="M408.27,39.65 C408.853684,39.5513988 409.27827,39.0418959 409.27,38.45 L409.27,27.73 C409.249427,27.1608443 408.831624,26.6845495 408.27,26.59 L408.27,26.32 L416.27,26.32 C416.552702,26.3264021 416.833143,26.268262 417.09,26.15 L417.36,26.15 L417.36,28.58 L417.09,28.58 C416.834708,27.7076078 415.994563,27.14051 415.09,27.23 L411.09,27.23 L411.09,32.36 L414.67,32.36 C415.179524,32.4118072 415.664294,32.1290244 415.87,31.66 L416.15,31.66 C416.15,31.88 416.15,32.53 416.15,32.79 C416.15,33.05 416.15,33.69 416.15,33.93 L415.87,33.93 C415.657142,33.4674087 415.177445,33.1875853 414.67,33.23 L411,33.23 L411,39 L415,39 C416.35,39 417,38.57 417.38,37.73 L417.66,37.79 L417.35,40 C416.302455,39.9118827 415.251025,39.8785039 414.2,39.9 L410.2,39.9 L408.28,39.9 L408.27,39.65 Z" id="Path" fill="#231F20" fill-rule="nonzero"></path>
            <path d="M429.25,39.17 C428.943768,39.3300849 428.646645,39.5070231 428.36,39.7 C428.02,39.93 427.58,40.29 427.58,40.29 C427.193788,39.9195923 426.899317,39.4641897 426.72,38.96 C425.871659,39.7289575 424.75382,40.1315233 423.61,40.08 C421.45,40.08 419.95,38 419.95,35.64 C419.95,33.28 421.54,31 423.9,31 C424.894355,30.9636503 425.856229,31.3571443 426.54,32.08 L426.54,27.82 C426.54,27.14 426.16,26.82 425.47,26.68 L425.47,26.44 L427.92,25.44 L428.15,25.44 L428.15,38.04 C428.15,38.71 428.36,38.88 428.62,38.88 C428.783767,38.8861138 428.947068,38.8588968 429.1,38.8 L429.25,39.17 Z M426.54,33.63 C426.285144,32.5455474 425.269087,31.8155232 424.16,31.92 C422.51,31.92 421.66,33.67 421.66,35.41 C421.66,37.15 422.66,39.06 424.41,39.06 C425.272952,39.0889983 426.08548,38.6541244 426.54,37.92 L426.54,33.63 Z" id="Shape" fill="#231F20" fill-rule="nonzero"></path>
            <path d="M432,33.31 C432,32.64 431.62,32.31 430.93,32.17 L430.93,31.94 L433.38,30.94 L433.61,30.94 L433.61,36.28 C433.61,37.78 433.93,38.97 435.43,38.97 C436.296623,38.9198378 437.099032,38.4967495 437.63,37.81 L437.63,33.31 C437.63,32.64 437.25,32.31 436.55,32.17 L436.55,31.94 L439,31 L439.23,31 L439.23,38.1 C439.23,38.77 439.44,38.94 439.7,38.94 C439.86382,38.9469725 440.027296,38.9197266 440.18,38.86 L440.33,39.2 C440.33,39.2 439.89,39.43 439.44,39.73 C438.99,40.03 438.66,40.32 438.66,40.32 C438.157785,39.9002968 437.806603,39.32787 437.66,38.69 C436.863287,39.5601837 435.749211,40.0721539 434.57,40.11 C433.865456,40.1664451 433.172061,39.9081471 432.67615,39.4045186 C432.18024,38.90089 431.932681,38.2035885 432,37.5 L432,33.31 Z" id="Path" fill="#231F20" fill-rule="nonzero"></path>
            <path d="M450.11,38.51 C449.283941,39.4796186 448.083451,40.0507609 446.81,40.08 C445.566901,40.1958963 444.336873,39.751405 443.455025,38.8676227 C442.573177,37.9838405 442.131381,36.7528423 442.25,35.51 C442.179197,34.291778 442.632984,33.10147 443.496806,32.2395594 C444.360628,31.3776488 445.551938,30.9264994 446.77,31 C447.783376,31.0172679 448.790843,31.1583134 449.77,31.42 L449.77,33.22 L449.49,33.22 C448.967572,32.2725015 447.950624,31.7058051 446.87,31.76 C445.1,31.76 444,33.17 444,35.31 C444,37.68 445.29,39.09 447.13,39.09 C448.112984,39.1153343 449.067151,38.7566246 449.79,38.09 L450.11,38.51 Z" id="Path" fill="#231F20" fill-rule="nonzero"></path>
            <path d="M453.26,31.39 C454.233959,31.1034824 455.244804,30.9619641 456.26,30.97 C458.77,30.97 459.26,32.26 459.26,33.67 L459.26,38.07 C459.26,38.74 459.47,38.91 459.72,38.91 C459.887023,38.9160955 460.053589,38.888901 460.21,38.83 L460.36,39.17 C460.053768,39.3300849 459.756645,39.5070231 459.47,39.7 C459.13,39.93 458.69,40.29 458.69,40.29 C458.300447,39.9204138 458.002544,39.464998 457.82,38.96 C457.105376,39.6967744 456.116165,40.1026046 455.09,40.08 C453.49,40.08 452.35,39.32 452.35,37.6 C452.35,35.88 453.87,35.17 455.41,34.9 C455.83,34.83 457.19,34.81 457.65,34.81 L457.65,33.44 C457.67167,32.9478504 457.474943,32.4712413 457.112443,32.1376636 C456.749942,31.8040858 456.258655,31.6475761 455.77,31.71 C454.817137,31.7003809 453.944429,32.2419276 453.53,33.1 L453.26,33.1 L453.26,31.39 Z M457.65,35.49 L456.41,35.49 C455.827592,35.4166103 455.24117,35.5915301 454.794136,35.9719844 C454.347102,36.3524388 454.080672,36.9033507 454.06,37.49 C454.028775,37.8932039 454.169736,38.2907761 454.447973,38.5842593 C454.72621,38.8777425 455.115705,39.0396914 455.52,39.03 C456.384069,39.0229602 457.185788,38.5788158 457.65,37.85 L457.65,35.49 Z" id="Shape" fill="#231F20" fill-rule="nonzero"></path>
            <path d="M463.3,31.92 L462,31.92 L462,31.41 L463.14,31.07 C463.765805,30.4223694 464.147512,29.5776651 464.22,28.68 L464.92,28.68 L464.92,31.11 L467.52,31.11 L467.52,31.92 L464.92,31.92 L464.92,37.33 C464.92,38.45 465.28,38.83 465.92,38.83 C466.423856,38.8235718 466.90079,38.6014877 467.23,38.22 L467.56,38.53 C467.125234,39.4025827 466.270613,39.9887168 465.3,40.08 C464.3,40.08 463.3,39.59 463.3,37.6 L463.3,31.92 Z" id="Path" fill="#231F20" fill-rule="nonzero"></path>
            <path d="M469.82,39.68 C470.27,39.48 470.75,39.25 470.75,38.85 L470.75,33.31 C470.75,32.64 470.37,32.31 469.68,32.17 L469.68,31.94 L472.13,30.94 L472.36,30.94 L472.36,38.82 C472.36,39.24 472.81,39.43 473.31,39.65 L473.31,39.9 L471.54,39.9 L469.82,39.9 L469.82,39.68 Z M471.49,27.4799969 C472.016064,27.4787097 472.453177,27.8852246 472.49,28.41 C472.453177,28.9347754 472.016064,29.3412903 471.49,29.3400031 C470.963936,29.3412903 470.526823,28.9347754 470.49,28.41 C470.526823,27.8852246 470.963936,27.4787097 471.49,27.4799969 Z" id="Shape" fill="#231F20" fill-rule="nonzero"></path>
            <path d="M475.28,35.53 C475.202354,33.8952844 476.030268,32.3503941 477.434447,31.5097953 C478.838626,30.6691966 480.591374,30.6691966 481.995553,31.5097953 C483.399732,32.3503941 484.227646,33.8952844 484.15,35.53 C484.227646,37.1647156 483.399732,38.7096059 481.995553,39.5502047 C480.591374,40.3908034 478.838626,40.3908034 477.434447,39.5502047 C476.030268,38.7096059 475.202354,37.1647156 475.28,35.53 Z M482.44,35.53 C482.44,33.8 481.66,31.75 479.71,31.75 C477.76,31.75 477,33.78 477,35.51 C477,37.24 477.78,39.32 479.72,39.32 C481.66,39.32 482.44,37.24 482.44,35.51 L482.44,35.53 Z" id="Shape" fill="#231F20" fill-rule="nonzero"></path>
            <path d="M486,39.68 C486.45,39.48 486.93,39.25 486.93,38.85 L486.93,33.31 C486.93,32.64 486.55,32.31 485.85,32.17 L485.85,31.94 L488.22,30.94 L488.45,30.94 L488.54,32.31 C489.318822,31.4736622 490.397917,30.9808754 491.54,30.94 C492.271541,30.8636173 493.001208,31.1006528 493.548198,31.5923726 C494.095189,32.0840924 494.408319,32.7844837 494.41,33.52 L494.41,38.82 C494.41,39.24 494.86,39.43 495.36,39.65 L495.36,39.9 L493.59,39.9 L491.88,39.9 L491.88,39.65 C492.32,39.45 492.81,39.22 492.81,38.82 L492.81,34.73 C492.81,33.23 492.22,32.05 490.72,32.05 C489.853377,32.1001622 489.050968,32.5232505 488.52,33.21 L488.52,38.85 C488.52,39.27 488.96,39.46 489.52,39.68 L489.52,39.93 L487.74,39.93 L486.03,39.93 L486,39.68 Z" id="Path" fill="#231F20" fill-rule="nonzero"></path>
        </g>
    </g>
</svg>